<?xml version="1.0" encoding="utf-8"?>
<!-- Generator: Adobe Illustrator 14.0.0, SVG Export Plug-In . SVG Version: 6.00 Build 43363)  -->
<!DOCTYPE svg PUBLIC "-//W3C//DTD SVG 1.1//EN" "http://www.w3.org/Graphics/SVG/1.1/DTD/svg11.dtd">
<svg version="1.1" id="레이어_1" xmlns="http://www.w3.org/2000/svg" xmlns:xlink="http://www.w3.org/1999/xlink" x="0px"
	 y="0px" width="395.4px" height="42.66px" viewBox="0 0 395.4 42.66" enable-background="new 0 0 395.4 42.66"
	 xml:space="preserve">
<g>
	<path fill="#EF4237" d="M0.833,19.873c0-2.352,0.349-4.533,1.044-6.545c0.696-2.011,1.718-3.744,3.063-5.199
		c1.346-1.454,2.994-2.6,4.943-3.435c1.95-0.835,4.193-1.253,6.731-1.253c2.537,0,4.796,0.418,6.777,1.253
		c1.979,0.835,3.644,1.981,4.989,3.435c1.347,1.455,2.368,3.188,3.064,5.199c0.696,2.012,1.044,4.194,1.044,6.545
		c0,2.352-0.348,4.533-1.044,6.545s-1.718,3.745-3.064,5.199c-1.346,1.455-3.01,2.6-4.989,3.435
		c-1.981,0.835-4.24,1.253-6.777,1.253c-2.538,0-4.781-0.418-6.731-1.253c-1.949-0.835-3.598-1.979-4.943-3.435
		c-1.346-1.454-2.367-3.188-3.063-5.199C1.182,24.406,0.833,22.225,0.833,19.873z M25.019,19.734c0-1.516-0.14-3.033-0.418-4.549
		c-0.278-1.516-0.743-2.885-1.394-4.108c-0.649-1.222-1.508-2.212-2.576-2.971c-1.066-0.758-2.406-1.137-4.015-1.137
		c-1.578,0-2.901,0.379-3.969,1.137c-1.068,0.759-1.927,1.749-2.577,2.971c-0.65,1.223-1.106,2.592-1.369,4.108
		c-0.263,1.517-0.395,3.033-0.395,4.549c0,1.578,0.131,3.149,0.395,4.711c0.263,1.563,0.719,2.955,1.369,4.178
		s1.509,2.221,2.577,2.994c1.066,0.773,2.391,1.16,3.969,1.16c1.608,0,2.948-0.395,4.015-1.184c1.068-0.789,1.927-1.802,2.576-3.041
		c0.65-1.236,1.114-2.623,1.394-4.154c0.278-1.531,0.418-3.056,0.418-4.572V19.734z"/>
	<path fill="#010101" d="M46.278,27.16c-0.248,0-0.55-0.014-0.905-0.045c-0.355-0.03-0.695-0.101-1.021-0.209
		c-0.325-0.107-0.597-0.262-0.813-0.463s-0.325-0.441-0.325-0.721c0-0.402,0.187-0.727,0.558-0.975s0.975-0.372,1.81-0.372
		c0.743,0,1.354-0.154,1.833-0.464c0.479-0.309,0.859-0.721,1.137-1.23c0.279-0.51,0.465-1.091,0.558-1.741s0.124-1.315,0.093-1.996
		c0-0.773-0.101-1.54-0.302-2.298c-0.201-0.758-0.48-1.431-0.835-2.02c-0.356-0.587-0.806-1.06-1.347-1.416
		c-0.542-0.355-1.152-0.534-1.832-0.534c-0.682,0-1.301,0.209-1.857,0.627c-0.557,0.417-0.835,0.967-0.835,1.648v17.408
		c0,0.711,0.387,1.176,1.161,1.393c0.772,0.277,1.161,0.635,1.161,1.068c0,0.649-0.311,0.975-0.93,0.975h-8.727
		c-0.62,0-0.929-0.325-0.929-0.975c0-0.402,0.387-0.744,1.16-1.021c0.773-0.216,1.161-0.695,1.161-1.439V14.953
		c0-0.433-0.355-0.773-1.067-1.021c-0.743-0.216-1.114-0.587-1.114-1.114c0-0.34,0.231-0.65,0.696-0.929
		c0.464-0.278,1.044-0.518,1.74-0.719s1.479-0.379,2.345-0.534c0.865-0.154,1.693-0.278,2.482-0.371
		c0.79-0.093,1.493-0.163,2.112-0.209s1.052-0.069,1.3-0.069c1.207,0,2.429,0.162,3.667,0.487c1.237,0.325,2.359,0.835,3.366,1.532
		c1.005,0.696,1.833,1.571,2.483,2.623c0.649,1.053,0.975,2.291,0.975,3.714c0,1.517-0.217,2.832-0.65,3.945
		c-0.434,1.114-1.044,2.042-1.833,2.784c-0.789,0.744-1.74,1.285-2.854,1.625C48.785,27.038,47.578,27.191,46.278,27.16z"/>
	<path fill="#010101" d="M65.217,19.223c0.526,0.217,1.068,0.325,1.625,0.325c0.278,0,0.665-0.023,1.16-0.069
		c0.495-0.046,0.897-0.07,1.207-0.07c0.681,0,1.23,0.116,1.648,0.348s0.626,0.658,0.626,1.277c0,0.619-0.217,1.037-0.65,1.253
		s-1.021,0.324-1.764,0.324c-0.588,0-1.13-0.022-1.625-0.069c-0.496-0.046-0.759-0.069-0.79-0.069c-0.248,0-0.565,0.063-0.952,0.186
		c-0.387,0.125-0.58,0.449-0.58,0.976v8.124c0,0.65,0.131,1.021,0.396,1.114c0.263,0.093,0.642,0.155,1.137,0.186
		c0.557,0.031,1.246,0.054,2.066,0.07c0.818,0.016,1.616,0.008,2.391-0.022c0.619-0.031,1.207-0.146,1.764-0.349
		c0.558-0.201,1.037-0.502,1.439-0.905c0.464-0.464,0.858-0.835,1.184-1.113c0.325-0.279,0.534-0.418,0.626-0.418
		c0.279-0.03,0.526,0.022,0.743,0.162c0.216,0.14,0.325,0.349,0.325,0.627c0,0.154-0.063,0.402-0.187,0.742
		c-0.124,0.342-0.277,0.721-0.464,1.137c-0.186,0.418-0.387,0.83-0.604,1.23c-0.217,0.402-0.418,0.712-0.604,0.928
		c-0.217,0.248-0.503,0.418-0.858,0.512c-0.356,0.093-0.58,0.139-0.673,0.139H57.834c-0.31,0-0.542-0.1-0.695-0.303
		c-0.155-0.2-0.232-0.471-0.232-0.813c0-0.216,0.124-0.386,0.372-0.51c0.247-0.124,0.51-0.248,0.789-0.372
		c0.278-0.123,0.541-0.293,0.789-0.511c0.248-0.217,0.372-0.526,0.372-0.928V13.514c0-0.372-0.124-0.665-0.372-0.882
		c-0.248-0.216-0.511-0.402-0.789-0.557c-0.279-0.155-0.542-0.302-0.789-0.441c-0.248-0.139-0.372-0.332-0.372-0.58
		c0-0.65,0.309-0.975,0.929-0.975h15.18c0.371,0,0.719,0.116,1.044,0.348c0.324,0.232,0.619,0.534,0.882,0.905
		c0.263,0.372,0.479,0.79,0.649,1.253c0.17,0.464,0.256,0.929,0.256,1.393c0,0.093-0.04,0.217-0.116,0.372
		c-0.078,0.155-0.178,0.278-0.302,0.371c-0.124,0.093-0.264,0.155-0.417,0.186c-0.155,0.031-0.325-0.031-0.512-0.186
		c-0.712-0.557-1.276-0.982-1.693-1.276c-0.418-0.294-0.859-0.518-1.323-0.673c-0.464-0.155-1.014-0.248-1.648-0.279
		c-0.634-0.03-1.493-0.046-2.576-0.046c-0.897,0-1.478,0.124-1.74,0.372c-0.264,0.248-0.396,0.588-0.396,1.021
		c0,1.207,0.007,2.159,0.023,2.855c0.015,0.696,0.022,1.223,0.022,1.578c0,0.356,0.007,0.596,0.023,0.72
		C65.209,19.115,65.217,19.193,65.217,19.223z"/>
	<path fill="#010101" d="M99.985,13.514c0,1.114,0.015,2.414,0.046,3.899c0.03,1.485,0.063,3.033,0.093,4.642
		c0.03,1.609,0.046,3.203,0.046,4.781s-0.008,3.002-0.022,4.271c-0.017,1.27-0.055,2.297-0.116,3.086
		c-0.063,0.789-0.155,1.215-0.278,1.277c-0.154,0.155-0.355,0.271-0.604,0.348c-0.248,0.078-0.496,0.123-0.743,0.14
		c-0.248,0.015-0.496-0.017-0.743-0.093c-0.249-0.077-0.434-0.209-0.557-0.396c-1.981-2.723-4.093-5.578-6.336-8.563
		c-2.244-2.986-4.604-5.841-7.079-8.564l-0.046,14.064c0,0.682,0.387,1.131,1.161,1.347c0.772,0.278,1.16,0.635,1.16,1.067
		c0,0.65-0.31,0.976-0.929,0.976h-5.94c-0.62,0-0.93-0.325-0.93-0.976c0-0.401,0.388-0.742,1.161-1.021
		c0.773-0.216,1.161-0.681,1.161-1.394V13.514c0-0.681-0.388-1.161-1.161-1.439c-0.773-0.216-1.161-0.557-1.161-1.021
		c0-0.68,0.31-1.021,0.93-1.021h5.105c0.216,0,0.611,0.286,1.185,0.858c0.571,0.573,1.229,1.316,1.973,2.229
		c0.743,0.913,1.547,1.942,2.414,3.087c0.866,1.145,1.732,2.267,2.6,3.365c0.866,1.099,1.687,2.135,2.46,3.11
		s1.439,1.758,1.996,2.344c0-0.029,0-0.123,0-0.277s-0.008-0.596-0.022-1.323c-0.017-0.728-0.023-1.857-0.023-3.389
		c0-1.532,0.016-3.706,0.046-6.522c0-0.619-0.51-1.129-1.532-1.532c-0.494-0.186-0.742-0.479-0.742-0.882
		c0-0.68,0.309-1.021,0.928-1.021h5.849c0.65,0,0.976,0.341,0.976,1.021c0,0.434-0.388,0.759-1.16,0.975
		C100.372,12.353,99.985,12.833,99.985,13.514z"/>
	<path fill="#EF4237" d="M134.521,6.04c-0.311,0.063-0.588,0.139-0.836,0.232c-0.248,0.093-0.473,0.232-0.673,0.418
		c-0.202,0.186-0.396,0.441-0.58,0.766c-0.187,0.325-0.372,0.751-0.558,1.277c-1.393,4.271-2.793,8.526-4.201,12.765
		c-1.408,4.24-2.808,8.494-4.2,12.766c-0.187,0.557-0.612,0.952-1.277,1.184c-0.666,0.232-1.308,0.349-1.926,0.349
		c-0.65,0-1.276-0.101-1.88-0.302c-0.604-0.201-1.015-0.58-1.23-1.137l-9.794-25.3c-0.155-0.371-0.417-0.758-0.789-1.161
		c-0.372-0.401-0.773-0.789-1.207-1.16c-0.434-0.372-0.858-0.72-1.275-1.044c-0.419-0.325-0.735-0.611-0.952-0.859
		c0-0.835,0.387-1.253,1.161-1.253h11.93c0.772,0,1.161,0.418,1.161,1.253c0,0.526-0.294,0.898-0.882,1.114
		c-1.331,0.588-1.996,1.253-1.996,1.996c0,0.031,0.153,0.464,0.464,1.299c0.309,0.836,0.704,1.896,1.184,3.18
		s1.005,2.669,1.579,4.154c0.572,1.485,1.106,2.886,1.603,4.201c0.494,1.315,0.92,2.445,1.275,3.389s0.564,1.478,0.626,1.601
		c0.155,0.342,0.333,0.488,0.534,0.441c0.201-0.046,0.395-0.193,0.58-0.441c0.309-1.083,0.758-2.482,1.346-4.201
		c0.587-1.718,1.185-3.474,1.787-5.269c0.604-1.794,1.129-3.481,1.578-5.06c0.448-1.578,0.673-2.769,0.673-3.574
		c0-0.773-0.387-1.3-1.161-1.578c-0.743-0.279-1.113-0.68-1.113-1.207c0-0.804,0.401-1.207,1.206-1.207h7.521
		c0.402,0,0.696,0.116,0.882,0.348c0.187,0.232,0.279,0.488,0.279,0.766c0,0.278-0.07,0.542-0.209,0.789
		C135.009,5.824,134.8,5.979,134.521,6.04z"/>
	<path fill="#010101" d="M149.654,35.795c-0.712,0-1.068-0.34-1.068-1.021c0-0.401,0.264-0.695,0.789-0.882
		c0.588-0.216,1.037-0.479,1.347-0.788c0.309-0.31,0.401-0.635,0.278-0.976l-1.113-3.575c-0.682-0.154-1.425-0.216-2.229-0.186
		c-1.052,0.248-1.966,0.248-2.739,0c-0.712-0.217-1.067-0.619-1.067-1.207c0-0.525,0.192-0.875,0.581-1.045
		c0.386-0.168,0.951-0.254,1.693-0.254c0.402,0,0.858,0.008,1.369,0.022c0.511,0.017,0.874-0.101,1.091-0.349
		c-0.03-0.277-0.17-0.795-0.417-1.555c-0.248-0.758-0.519-1.555-0.813-2.391c-0.294-0.835-0.58-1.617-0.859-2.344
		c-0.278-0.727-0.464-1.214-0.557-1.462c-0.311,0.681-0.689,1.648-1.137,2.901c-0.449,1.253-0.983,2.762-1.603,4.526
		c-0.712,1.98-1.223,3.582-1.532,4.804c-0.31,1.224-0.464,2.05-0.464,2.483c0,0.65,0.325,1.083,0.976,1.3
		c0.68,0.278,1.021,0.604,1.021,0.976c0,0.681-0.355,1.021-1.067,1.021h-6.033c-0.342,0-0.551-0.093-0.626-0.278
		c-0.078-0.186-0.116-0.447-0.116-0.79c0.68-0.524,1.307-1.036,1.88-1.532c0.572-0.494,0.952-0.989,1.137-1.484
		c1.207-3.404,2.336-6.792,3.39-10.166c1.052-3.373,2.15-6.792,3.296-10.259c0.153-0.433,0.433-0.766,0.835-0.998
		c0.401-0.232,0.819-0.348,1.253-0.348c0.525,0,1.075,0.101,1.647,0.302c0.572,0.202,0.937,0.503,1.092,0.905
		c1.207,3.405,2.406,6.785,3.598,10.143s2.375,6.739,3.551,10.143c0.155,0.371,0.41,0.681,0.767,0.929
		c0.354,0.248,0.874,0.635,1.555,1.16c0.34,0.248,0.65,0.473,0.928,0.674c0.279,0.201,0.418,0.395,0.418,0.58
		c0,0.682-0.341,1.021-1.021,1.021H149.654z"/>
	<path fill="#010101" d="M172.957,35.841c-3.683,0-6.545-1.3-8.588-3.899c-1.888-2.443-2.832-5.431-2.832-8.959
		c0-3.435,0.883-6.39,2.646-8.866c1.979-2.662,4.75-3.992,8.309-3.992c0.216,0,0.549,0.023,0.998,0.069
		c0.448,0.046,1.014,0.132,1.694,0.255c0.309,0.063,0.604,0.109,0.882,0.139c0.279,0.031,0.495,0.046,0.65,0.046
		c0.03-0.03,0.124-0.093,0.278-0.186c0.154-0.093,0.325-0.186,0.511-0.278c0.186-0.093,0.354-0.17,0.511-0.232
		c0.155-0.062,0.248-0.093,0.279-0.093c0.68,0,1.314,0.805,1.902,2.414c0.279,0.743,0.479,1.385,0.604,1.926
		c0.124,0.542,0.186,0.983,0.186,1.323c0,0.31-0.124,0.534-0.371,0.673c-0.248,0.139-0.573,0.209-0.975,0.209
		c-1.084-0.99-2.089-1.811-3.019-2.46c-0.525-0.371-1.099-0.665-1.717-0.882c-0.62-0.216-1.285-0.325-1.996-0.325
		c-1.95,0-3.389,1.176-4.316,3.528c-0.682,1.578-1.021,3.652-1.021,6.22c0,3.002,0.372,5.309,1.114,6.917
		c1.083,2.353,2.8,3.528,5.152,3.528c0.587,0,1.176-0.1,1.764-0.303c0.587-0.2,1.16-0.472,1.717-0.813
		c2.042-1.3,3.188-1.965,3.436-1.996c0.216-0.029,0.401,0.008,0.557,0.116c0.154,0.108,0.278,0.239,0.371,0.396
		c0.093,0.154,0.155,0.301,0.186,0.44s0.007,0.426-0.069,0.858c-0.078,0.435-0.379,0.883-0.905,1.347s-1.377,0.959-2.553,1.485
		C176.33,35.377,174.535,35.841,172.957,35.841z"/>
	<path fill="#010101" d="M194.774,35.841c-3.683,0-6.545-1.3-8.588-3.899c-1.888-2.443-2.832-5.431-2.832-8.959
		c0-3.435,0.882-6.39,2.646-8.866c1.98-2.662,4.75-3.992,8.31-3.992c0.216,0,0.549,0.023,0.999,0.069
		c0.448,0.046,1.013,0.132,1.694,0.255c0.309,0.063,0.604,0.109,0.882,0.139c0.277,0.031,0.493,0.046,0.648,0.046
		c0.031-0.03,0.124-0.093,0.279-0.186c0.154-0.093,0.324-0.186,0.51-0.278c0.188-0.093,0.355-0.17,0.511-0.232
		s0.248-0.093,0.279-0.093c0.68,0,1.314,0.805,1.902,2.414c0.278,0.743,0.479,1.385,0.604,1.926
		c0.124,0.542,0.187,0.983,0.187,1.323c0,0.31-0.124,0.534-0.371,0.673c-0.248,0.139-0.573,0.209-0.976,0.209
		c-1.084-0.99-2.089-1.811-3.018-2.46c-0.526-0.371-1.099-0.665-1.717-0.882c-0.62-0.216-1.285-0.325-1.997-0.325
		c-1.95,0-3.39,1.176-4.317,3.528c-0.681,1.578-1.021,3.652-1.021,6.22c0,3.002,0.372,5.309,1.113,6.917
		c1.083,2.353,2.801,3.528,5.152,3.528c0.588,0,1.176-0.1,1.765-0.303c0.588-0.2,1.16-0.472,1.718-0.813
		c2.043-1.3,3.188-1.965,3.436-1.996c0.216-0.029,0.401,0.008,0.558,0.116c0.153,0.108,0.277,0.239,0.37,0.396
		c0.095,0.154,0.155,0.301,0.188,0.44c0.03,0.14,0.007,0.426-0.07,0.858c-0.077,0.435-0.379,0.883-0.904,1.347
		c-0.526,0.464-1.378,0.959-2.554,1.485C198.147,35.377,196.354,35.841,194.774,35.841z"/>
	<path fill="#010101" d="M206.102,35.795c-0.619,0-0.929-0.34-0.929-1.021c0-0.433,0.387-0.758,1.161-0.975
		c0.771-0.277,1.159-0.758,1.159-1.439V13.514c0-0.681-0.388-1.161-1.159-1.439c-0.774-0.216-1.161-0.557-1.161-1.021
		c0-0.65,0.31-0.975,0.929-0.975h8.727c0.619,0,0.93,0.325,0.93,0.975c0,0.434-0.402,0.774-1.207,1.021
		c-0.773,0.278-1.16,0.758-1.16,1.439v18.846c0,0.682,0.387,1.162,1.16,1.439c0.805,0.248,1.207,0.573,1.207,0.975
		c0,0.682-0.311,1.021-0.93,1.021H206.102z"/>
	<path fill="#010101" d="M238.549,13.514c0,1.114,0.016,2.414,0.046,3.899c0.031,1.485,0.063,3.033,0.094,4.642
		c0.03,1.609,0.046,3.203,0.046,4.781s-0.008,3.002-0.022,4.271c-0.017,1.27-0.055,2.297-0.116,3.086
		c-0.063,0.789-0.154,1.215-0.278,1.277c-0.155,0.155-0.354,0.271-0.604,0.348c-0.248,0.078-0.495,0.123-0.742,0.14
		c-0.248,0.015-0.495-0.017-0.743-0.093c-0.248-0.077-0.435-0.209-0.557-0.396c-1.981-2.723-4.094-5.578-6.337-8.563
		c-2.243-2.986-4.604-5.841-7.078-8.564l-0.048,14.064c0,0.682,0.388,1.131,1.16,1.347c0.773,0.278,1.161,0.635,1.161,1.067
		c0,0.65-0.31,0.976-0.929,0.976h-5.941c-0.619,0-0.929-0.325-0.929-0.976c0-0.401,0.387-0.742,1.161-1.021
		c0.771-0.216,1.16-0.681,1.16-1.394V13.514c0-0.681-0.389-1.161-1.16-1.439c-0.774-0.216-1.161-0.557-1.161-1.021
		c0-0.68,0.31-1.021,0.929-1.021h5.105c0.217,0,0.61,0.286,1.185,0.858c0.572,0.573,1.229,1.316,1.974,2.229
		c0.741,0.913,1.547,1.942,2.414,3.087c0.864,1.145,1.731,2.267,2.599,3.365c0.866,1.099,1.687,2.135,2.461,3.11
		c0.771,0.975,1.438,1.758,1.996,2.344c0-0.029,0-0.123,0-0.277s-0.009-0.596-0.023-1.323c-0.016-0.728-0.022-1.857-0.022-3.389
		c0-1.532,0.016-3.706,0.047-6.522c0-0.619-0.511-1.129-1.532-1.532c-0.495-0.186-0.743-0.479-0.743-0.882
		c0-0.68,0.311-1.021,0.93-1.021h5.849c0.65,0,0.976,0.341,0.976,1.021c0,0.434-0.388,0.759-1.161,0.975
		C238.936,12.353,238.549,12.833,238.549,13.514z"/>
	<path fill="#010101" d="M250.85,19.223c0.526,0.217,1.066,0.325,1.625,0.325c0.278,0,0.665-0.023,1.16-0.069
		c0.495-0.046,0.896-0.07,1.207-0.07c0.681,0,1.229,0.116,1.646,0.348c0.418,0.232,0.627,0.658,0.627,1.277
		c0,0.619-0.217,1.037-0.648,1.253c-0.435,0.217-1.021,0.324-1.766,0.324c-0.588,0-1.13-0.022-1.624-0.069
		c-0.496-0.046-0.759-0.069-0.789-0.069c-0.248,0-0.564,0.063-0.951,0.186c-0.388,0.125-0.58,0.449-0.58,0.976v8.124
		c0,0.65,0.132,1.021,0.395,1.114s0.643,0.155,1.138,0.186c0.558,0.031,1.245,0.054,2.065,0.07c0.819,0.016,1.616,0.008,2.391-0.022
		c0.618-0.031,1.207-0.146,1.765-0.349c0.558-0.201,1.037-0.502,1.438-0.905c0.464-0.464,0.858-0.835,1.185-1.113
		c0.325-0.279,0.532-0.418,0.627-0.418c0.277-0.03,0.524,0.022,0.742,0.162c0.216,0.14,0.324,0.349,0.324,0.627
		c0,0.154-0.063,0.402-0.186,0.742c-0.124,0.342-0.279,0.721-0.465,1.137c-0.187,0.418-0.388,0.83-0.604,1.23
		c-0.217,0.402-0.417,0.712-0.604,0.928c-0.217,0.248-0.503,0.418-0.858,0.512c-0.355,0.093-0.58,0.139-0.673,0.139h-15.969
		c-0.311,0-0.542-0.1-0.696-0.303c-0.155-0.2-0.231-0.471-0.231-0.813c0-0.216,0.123-0.386,0.371-0.51
		c0.247-0.124,0.512-0.248,0.789-0.372c0.278-0.123,0.541-0.293,0.789-0.511c0.247-0.217,0.371-0.526,0.371-0.928V13.514
		c0-0.372-0.124-0.665-0.371-0.882c-0.248-0.216-0.511-0.402-0.789-0.557c-0.277-0.155-0.542-0.302-0.789-0.441
		c-0.248-0.139-0.371-0.332-0.371-0.58c0-0.65,0.31-0.975,0.929-0.975h15.18c0.371,0,0.72,0.116,1.044,0.348
		c0.325,0.232,0.619,0.534,0.882,0.905c0.264,0.372,0.479,0.79,0.65,1.253c0.17,0.464,0.255,0.929,0.255,1.393
		c0,0.093-0.039,0.217-0.115,0.372c-0.078,0.155-0.179,0.278-0.302,0.371c-0.124,0.093-0.264,0.155-0.418,0.186
		c-0.155,0.031-0.325-0.031-0.511-0.186c-0.712-0.557-1.276-0.982-1.694-1.276s-0.858-0.518-1.323-0.673
		c-0.464-0.155-1.014-0.248-1.646-0.279c-0.635-0.03-1.494-0.046-2.576-0.046c-0.898,0-1.479,0.124-1.741,0.372
		s-0.395,0.588-0.395,1.021c0,1.207,0.007,2.159,0.022,2.855s0.023,1.223,0.023,1.578c0,0.356,0.007,0.596,0.021,0.72
		C250.842,19.115,250.85,19.193,250.85,19.223z"/>
	<path fill="#010101" d="M280.65,1.955c-3.435,0.557-5.841,2.182-7.218,4.874c-1.378,2.692-2.065,7.489-2.065,14.39
		c0,6.934,0.688,11.744,2.065,14.438c1.377,2.691,3.783,4.316,7.218,4.873v2.043c-4.951-0.558-8.882-2.756-11.79-6.592
		c-2.909-3.838-4.363-8.758-4.363-14.762c0-5.972,1.454-10.877,4.363-14.715c2.908-3.836,6.839-6.034,11.79-6.591V1.955z"/>
	<path fill="#010101" d="M295.181,36.12c-2.073,0-4.379-0.232-6.916-0.696c-3.561-0.648-5.338-1.547-5.338-2.691
		c0-0.187,0.354-0.543,1.066-1.068c0.711-0.526,1.067-1.207,1.067-2.042V9.429c0-0.557-0.464-0.975-1.394-1.253
		c-0.896-0.34-1.346-0.804-1.346-1.393c0-0.433,0.285-0.82,0.858-1.161c0.571-0.34,1.3-0.642,2.182-0.905
		c0.882-0.262,1.856-0.487,2.925-0.673c1.067-0.186,2.089-0.332,3.063-0.441c0.975-0.108,1.849-0.193,2.623-0.255
		c0.771-0.062,1.313-0.093,1.624-0.093c1.3,0,2.63,0.116,3.992,0.348c1.36,0.232,2.614,0.643,3.76,1.23
		c1.145,0.588,2.081,1.362,2.809,2.321c0.728,0.96,1.091,2.167,1.091,3.621c0,0.743-0.146,1.462-0.439,2.158
		c-0.295,0.696-0.683,1.339-1.161,1.927c-0.479,0.588-1.044,1.106-1.694,1.555c-0.648,0.449-1.331,0.797-2.042,1.044v0.557
		c0.866,0.372,1.709,0.797,2.529,1.277s1.539,1.044,2.159,1.694c0.618,0.65,1.121,1.393,1.509,2.229
		c0.386,0.835,0.58,1.78,0.58,2.832c0,1.856-0.302,3.428-0.905,4.711c-0.604,1.285-1.479,2.321-2.623,3.11
		c-1.146,0.789-2.553,1.361-4.224,1.717S297.347,36.12,295.181,36.12z M293.975,18.341c0-0.216,0.278-0.518,0.835-0.905
		c0.558-0.387,1.3-0.813,2.229-1.277c0.99-0.525,1.709-1.199,2.158-2.019c0.448-0.819,0.673-1.741,0.673-2.762
		c0-0.557-0.077-1.122-0.23-1.694c-0.155-0.572-0.38-1.091-0.674-1.555s-0.682-0.843-1.16-1.137
		c-0.48-0.294-1.044-0.441-1.694-0.441c-0.99,0-1.855,0.255-2.6,0.766c-0.742,0.511-1.114,1.23-1.114,2.159V30.04
		c0,0.495,0.124,0.905,0.372,1.229c0.247,0.325,0.563,0.588,0.951,0.789c0.387,0.202,0.813,0.348,1.275,0.441
		c0.465,0.093,0.913,0.139,1.348,0.139c0.865,0,1.607-0.162,2.228-0.486c0.619-0.326,1.13-0.767,1.532-1.323
		c0.401-0.558,0.696-1.214,0.882-1.974c0.187-0.758,0.278-1.57,0.278-2.437c0-1.485-0.317-2.708-0.951-3.667
		c-0.635-0.959-1.493-1.687-2.576-2.182c-1.27-0.587-2.213-1.044-2.832-1.37C294.282,18.875,293.975,18.59,293.975,18.341z"/>
	<path fill="#010101" d="M318.669,19.223c0.525,0.217,1.066,0.325,1.625,0.325c0.277,0,0.664-0.023,1.159-0.069
		c0.495-0.046,0.897-0.07,1.207-0.07c0.682,0,1.23,0.116,1.647,0.348c0.418,0.232,0.627,0.658,0.627,1.277
		c0,0.619-0.217,1.037-0.649,1.253c-0.434,0.217-1.021,0.324-1.765,0.324c-0.588,0-1.13-0.022-1.624-0.069
		c-0.496-0.046-0.759-0.069-0.789-0.069c-0.248,0-0.564,0.063-0.952,0.186c-0.387,0.125-0.58,0.449-0.58,0.976v8.124
		c0,0.65,0.133,1.021,0.396,1.114s0.642,0.155,1.138,0.186c0.557,0.031,1.245,0.054,2.065,0.07c0.818,0.016,1.616,0.008,2.391-0.022
		c0.618-0.031,1.207-0.146,1.764-0.349c0.559-0.201,1.037-0.502,1.439-0.905c0.464-0.464,0.858-0.835,1.184-1.113
		c0.325-0.279,0.533-0.418,0.627-0.418c0.278-0.03,0.525,0.022,0.742,0.162c0.216,0.14,0.325,0.349,0.325,0.627
		c0,0.154-0.063,0.402-0.186,0.742c-0.124,0.342-0.279,0.721-0.466,1.137c-0.186,0.418-0.387,0.83-0.604,1.23
		c-0.217,0.402-0.417,0.712-0.604,0.928c-0.217,0.248-0.503,0.418-0.857,0.512c-0.356,0.093-0.58,0.139-0.673,0.139h-15.97
		c-0.31,0-0.542-0.1-0.695-0.303c-0.155-0.2-0.231-0.471-0.231-0.813c0-0.216,0.123-0.386,0.371-0.51
		c0.247-0.124,0.511-0.248,0.789-0.372c0.278-0.123,0.541-0.293,0.789-0.511c0.247-0.217,0.371-0.526,0.371-0.928V13.514
		c0-0.372-0.124-0.665-0.371-0.882c-0.248-0.216-0.511-0.402-0.789-0.557c-0.278-0.155-0.542-0.302-0.789-0.441
		c-0.248-0.139-0.371-0.332-0.371-0.58c0-0.65,0.31-0.975,0.928-0.975h15.181c0.371,0,0.72,0.116,1.044,0.348
		c0.325,0.232,0.619,0.534,0.882,0.905c0.263,0.372,0.479,0.79,0.65,1.253c0.17,0.464,0.255,0.929,0.255,1.393
		c0,0.093-0.039,0.217-0.115,0.372c-0.078,0.155-0.179,0.278-0.302,0.371c-0.124,0.093-0.265,0.155-0.418,0.186
		c-0.155,0.031-0.325-0.031-0.512-0.186c-0.712-0.557-1.275-0.982-1.693-1.276s-0.858-0.518-1.323-0.673
		c-0.464-0.155-1.014-0.248-1.647-0.279c-0.635-0.03-1.493-0.046-2.575-0.046c-0.898,0-1.479,0.124-1.741,0.372
		c-0.263,0.248-0.396,0.588-0.396,1.021c0,1.207,0.008,2.159,0.023,2.855c0.015,0.696,0.023,1.223,0.023,1.578
		c0,0.356,0.007,0.596,0.021,0.72C318.66,19.115,318.669,19.193,318.669,19.223z"/>
	<path fill="#010101" d="M352.739,15.603c-0.495-0.34-0.882-0.627-1.16-0.859c-0.277-0.232-0.588-0.58-0.929-1.044
		c-0.248-0.278-0.688-0.502-1.322-0.673c-0.635-0.169-1.446-0.255-2.438-0.255c-0.805,0-1.207,0.356-1.207,1.067v18.521
		c0,0.682,0.372,1.162,1.114,1.439c0.772,0.217,1.16,0.557,1.16,1.021c0,0.649-0.324,0.975-0.976,0.975h-8.587
		c-0.62,0-0.929-0.325-0.929-0.975c0-0.496,0.231-0.791,0.696-0.883c1.052-0.277,1.577-0.928,1.577-1.949l-0.047-18.15
		c0-0.34-0.068-0.604-0.208-0.789c-0.14-0.186-0.411-0.278-0.813-0.278c-0.526,0-0.983-0.007-1.37-0.023
		c-0.387-0.015-0.758,0.008-1.113,0.07s-0.688,0.193-0.998,0.395s-0.635,0.534-0.976,0.998c-0.806,0.991-1.377,1.485-1.717,1.485
		c-0.65,0-0.976-0.294-0.976-0.882c0-0.495,0.278-1.238,0.835-2.229c0.402-0.743,0.735-1.346,0.998-1.81s0.734-0.696,1.416-0.696
		c2.661,0,4.874,0,6.638,0c1.765,0,3.203,0,4.317,0s1.957,0,2.529,0c0.571,0,0.998,0,1.276,0s0.464,0,0.558,0
		c0.093,0,0.216,0,0.371,0c0.742,0.062,1.407,0.542,1.996,1.438c0.588,0.898,1.036,1.996,1.347,3.296
		c0.03,0.093,0,0.193-0.093,0.301c-0.094,0.109-0.194,0.209-0.303,0.302c-0.108,0.093-0.231,0.163-0.372,0.209
		C352.902,15.672,352.803,15.665,352.739,15.603z"/>
	<path fill="#010101" d="M368.197,35.795c-0.712,0-1.066-0.34-1.066-1.021c0-0.401,0.263-0.695,0.789-0.882
		c0.588-0.216,1.036-0.479,1.347-0.788c0.309-0.31,0.4-0.635,0.278-0.976l-1.114-3.575c-0.682-0.154-1.424-0.216-2.229-0.186
		c-1.052,0.248-1.965,0.248-2.737,0c-0.713-0.217-1.067-0.619-1.067-1.207c0-0.525,0.192-0.875,0.58-1.045
		c0.387-0.168,0.951-0.254,1.694-0.254c0.4,0,0.857,0.008,1.368,0.022c0.512,0.017,0.874-0.101,1.092-0.349
		c-0.031-0.277-0.17-0.795-0.418-1.555c-0.248-0.758-0.52-1.555-0.813-2.391c-0.294-0.835-0.58-1.617-0.857-2.344
		c-0.278-0.727-0.465-1.214-0.558-1.462c-0.31,0.681-0.688,1.648-1.138,2.901c-0.449,1.253-0.982,2.762-1.603,4.526
		c-0.712,1.98-1.223,3.582-1.53,4.804c-0.312,1.224-0.466,2.05-0.466,2.483c0,0.65,0.325,1.083,0.976,1.3
		c0.681,0.278,1.021,0.604,1.021,0.976c0,0.681-0.354,1.021-1.066,1.021h-6.034c-0.342,0-0.55-0.093-0.627-0.278
		c-0.078-0.186-0.116-0.447-0.116-0.79c0.681-0.524,1.308-1.036,1.88-1.532c0.572-0.494,0.952-0.989,1.139-1.484
		c1.207-3.404,2.336-6.792,3.389-10.166c1.052-3.373,2.15-6.792,3.296-10.259c0.154-0.433,0.433-0.766,0.835-0.998
		c0.402-0.232,0.819-0.348,1.254-0.348c0.525,0,1.074,0.101,1.647,0.302c0.571,0.202,0.936,0.503,1.091,0.905
		c1.207,3.405,2.406,6.785,3.598,10.143c1.19,3.358,2.375,6.739,3.551,10.143c0.154,0.371,0.41,0.681,0.768,0.929
		c0.354,0.248,0.874,0.635,1.555,1.16c0.34,0.248,0.649,0.473,0.93,0.674c0.277,0.201,0.416,0.395,0.416,0.58
		c0,0.682-0.341,1.021-1.021,1.021H368.197z"/>
	<path fill="#010101" d="M380.082,42.572v-2.043c3.403-0.557,5.794-2.182,7.173-4.873c1.376-2.692,2.064-7.504,2.064-14.438
		c0-6.932-0.688-11.736-2.064-14.414c-1.379-2.676-3.77-4.293-7.173-4.851v-2.042c4.95,0.526,8.882,2.708,11.79,6.545
		c2.908,3.838,4.363,8.758,4.363,14.762c0,5.973-1.455,10.893-4.363,14.762C388.964,39.849,385.032,42.046,380.082,42.572z"/>
</g>
</svg>
