<?xml version="1.0" encoding="utf-8"?>
<!-- Generator: Adobe Illustrator 14.0.0, SVG Export Plug-In . SVG Version: 6.00 Build 43363)  -->
<!DOCTYPE svg PUBLIC "-//W3C//DTD SVG 1.1//EN" "http://www.w3.org/Graphics/SVG/1.1/DTD/svg11.dtd">
<svg version="1.1" id="레이어_1" xmlns="http://www.w3.org/2000/svg" xmlns:xlink="http://www.w3.org/1999/xlink" x="0px"
	 y="0px" width="283.46px" height="36.28px" viewBox="0 0 283.46 36.28" enable-background="new 0 0 283.46 36.28"
	 xml:space="preserve">
<g>
	<path fill="#ED1C24" d="M22.361,26.711c-1.113,1.396-2.426,2.424-3.941,3.086c-1.515,0.662-3.231,0.993-5.148,0.993
		c-2.13,0-3.959-0.385-5.485-1.153c-1.527-0.768-2.782-1.809-3.764-3.121c-0.982-1.312-1.704-2.824-2.166-4.539
		c-0.461-1.715-0.692-3.517-0.692-5.409c0-1.845,0.236-3.624,0.71-5.338c0.473-1.714,1.207-3.228,2.201-4.54
		C5.07,5.378,6.325,4.332,7.84,3.551c1.514-0.78,3.325-1.17,5.432-1.17c2.083,0,3.881,0.396,5.396,1.188
		c1.515,0.792,2.77,1.844,3.764,3.157c0.994,1.312,1.733,2.819,2.219,4.522c0.485,1.703,0.716,3.476,0.692,5.32
		c-0.024,2.081-0.272,3.966-0.746,5.657C24.124,23.916,23.378,25.411,22.361,26.711z M13.272,6.779c-1.231,0-2.29,0.278-3.178,0.833
		C9.207,8.168,8.473,8.907,7.893,9.829c-0.581,0.922-1.006,1.968-1.278,3.139c-0.272,1.17-0.408,2.371-0.408,3.6
		s0.136,2.429,0.408,3.6c0.272,1.17,0.698,2.217,1.278,3.139c0.58,0.922,1.313,1.666,2.201,2.234
		c0.888,0.567,1.947,0.852,3.178,0.852c1.207,0,2.254-0.284,3.142-0.852c0.888-0.568,1.615-1.313,2.184-2.234
		c0.568-0.922,0.988-1.975,1.26-3.156c0.272-1.183,0.408-2.377,0.408-3.583c0-1.182-0.136-2.359-0.408-3.529
		c-0.272-1.17-0.692-2.217-1.26-3.139c-0.568-0.922-1.291-1.672-2.166-2.252C15.556,7.068,14.502,6.779,13.272,6.779z"/>
	<path d="M38.622,31.038c-0.734,0-1.486-0.165-2.255-0.497c-0.769-0.33-1.438-0.839-2.006-1.524v6.065
		c0,0.26-0.042,0.443-0.124,0.549c-0.083,0.107-0.267,0.16-0.55,0.16h-3.302c-0.261,0-0.438-0.053-0.533-0.16
		c-0.095-0.105-0.142-0.289-0.142-0.549V11.035c0-0.331,0.065-0.55,0.195-0.656c0.129-0.106,0.325-0.159,0.585-0.159h3.196
		c0.284,0,0.479,0.042,0.585,0.124c0.106,0.083,0.16,0.254,0.16,0.514v1.383c0.213-0.284,0.485-0.562,0.817-0.833
		c0.331-0.271,0.698-0.508,1.101-0.709c0.402-0.201,0.834-0.36,1.296-0.479s0.917-0.178,1.367-0.178c1.208,0,2.29,0.249,3.249,0.745
		c0.958,0.497,1.781,1.206,2.467,2.128c0.687,0.922,1.213,2.034,1.58,3.334c0.367,1.301,0.55,2.766,0.55,4.398
		c0,1.537-0.189,2.943-0.568,4.221c-0.379,1.276-0.923,2.371-1.633,3.28c-0.71,0.91-1.575,1.62-2.592,2.128
		C41.047,30.783,39.899,31.038,38.622,31.038z M38.195,14.369c-0.497,0-0.977,0.124-1.438,0.373
		c-0.461,0.248-0.87,0.626-1.225,1.135c-0.355,0.509-0.646,1.153-0.87,1.933c-0.225,0.78-0.337,1.703-0.337,2.766
		c0,1.112,0.101,2.058,0.302,2.837c0.201,0.781,0.474,1.42,0.817,1.916c0.343,0.496,0.751,0.857,1.225,1.082
		s0.982,0.336,1.527,0.336c1.183,0,2.136-0.496,2.858-1.488c0.722-0.994,1.083-2.555,1.083-4.683c0-2.222-0.367-3.813-1.101-4.77
		C40.302,14.848,39.355,14.369,38.195,14.369z"/>
	<path d="M66.883,20.93c-0.024,0.284-0.089,0.503-0.195,0.656c-0.106,0.154-0.302,0.23-0.586,0.23H54.989
		c0.166,1.585,0.668,2.756,1.509,3.512c0.84,0.757,1.84,1.158,3,1.205c1.088,0.049,2.042-0.059,2.858-0.318
		c0.817-0.26,1.604-0.627,2.361-1.1c0.331-0.213,0.556-0.271,0.674-0.178c0.118,0.096,0.178,0.344,0.178,0.745v2.66
		c0,0.26-0.03,0.437-0.089,0.532c-0.06,0.094-0.195,0.225-0.408,0.39c-0.687,0.474-1.557,0.827-2.61,1.064
		c-1.053,0.235-2.089,0.354-3.106,0.354c-2.84,0-5.083-0.91-6.728-2.73c-1.646-1.82-2.468-4.41-2.468-7.768
		c0-1.253,0.166-2.506,0.497-3.76c0.331-1.253,0.864-2.382,1.598-3.387c0.733-1.004,1.633-1.82,2.699-2.447
		c1.065-0.626,2.331-0.94,3.799-0.94c1.491,0,2.751,0.272,3.781,0.816c1.029,0.544,1.87,1.277,2.521,2.199
		c0.651,0.922,1.119,1.993,1.403,3.21c0.284,1.218,0.426,2.513,0.426,3.884V20.93z M58.859,13.766c-0.497,0-0.958,0.119-1.385,0.355
		c-0.426,0.236-0.799,0.544-1.118,0.922c-0.32,0.378-0.598,0.816-0.834,1.313c-0.237,0.497-0.391,1.017-0.461,1.561h7.207
		c0-0.473-0.077-0.958-0.23-1.454c-0.154-0.497-0.367-0.94-0.639-1.33c-0.272-0.39-0.622-0.715-1.047-0.976
		C59.924,13.896,59.427,13.766,58.859,13.766z"/>
	<path d="M75.475,29.478c0,0.284-0.048,0.473-0.142,0.567c-0.095,0.094-0.272,0.143-0.533,0.143h-3.302
		c-0.284,0-0.474-0.06-0.568-0.178c-0.095-0.119-0.142-0.308-0.142-0.567V15.575c0-0.898,0.005-1.809,0.018-2.731
		c0.012-0.922-0.018-1.62-0.089-2.093c-0.047-0.26-0.023-0.426,0.071-0.497c0.094-0.071,0.307-0.106,0.639-0.106H74.8
		c0.26,0,0.426,0.024,0.497,0.071c0.071,0.047,0.107,0.177,0.107,0.39v1.348c0.497-0.52,1.142-0.999,1.935-1.437
		c0.793-0.438,1.604-0.656,2.432-0.656c2.367,0,4.101,0.674,5.202,2.021c1.101,1.348,1.651,3.311,1.651,5.888v11.704
		c0,0.284-0.048,0.473-0.142,0.567c-0.095,0.094-0.272,0.143-0.533,0.143h-3.302c-0.474,0-0.71-0.248-0.71-0.745V18.483
		c0-2.861-0.864-4.292-2.592-4.292c-1.207,0-2.154,0.39-2.84,1.17c-0.687,0.78-1.03,1.844-1.03,3.192V29.478z"/>
	<path fill="#ED1C24" d="M103.984,29.654c-0.119,0.261-0.219,0.414-0.302,0.462c-0.083,0.047-0.219,0.071-0.408,0.071h-3.586
		c-0.166,0-0.29-0.024-0.373-0.071c-0.083-0.048-0.184-0.201-0.302-0.462L89.569,3.729c-0.142-0.402-0.166-0.644-0.071-0.727
		c0.094-0.083,0.355-0.124,0.781-0.124h3.444c0.26,0,0.438,0.03,0.533,0.088c0.094,0.06,0.189,0.219,0.284,0.479l6.888,20.288
		l7.03-20.288c0.095-0.26,0.195-0.419,0.302-0.479c0.107-0.059,0.29-0.088,0.551-0.088h3.479c0.402,0,0.639,0.047,0.71,0.142
		c0.071,0.095,0.035,0.332-0.106,0.709L103.984,29.654z"/>
	<path d="M124.151,30.258c-0.213,0-0.35-0.023-0.408-0.07c-0.06-0.049-0.089-0.189-0.089-0.426v-1.525
		c-0.403,0.639-1.06,1.182-1.971,1.631c-0.912,0.449-1.817,0.674-2.716,0.674c-0.971,0-1.906-0.136-2.805-0.407
		c-0.9-0.272-1.639-0.698-2.219-1.276c-0.581-0.58-1.036-1.277-1.367-2.093s-0.497-1.743-0.497-2.784
		c0-1.229,0.296-2.341,0.888-3.334c0.591-0.993,1.378-1.768,2.361-2.323c0.982-0.555,2.148-0.958,3.498-1.206
		c1.349-0.248,2.84-0.325,4.474-0.23c-0.142-1.868-0.947-2.896-2.415-3.085c-0.474-0.047-0.953-0.036-1.438,0.035
		c-0.485,0.071-0.958,0.184-1.42,0.337c-0.462,0.154-0.905,0.331-1.332,0.532c-0.426,0.201-0.805,0.408-1.136,0.621
		c-0.497,0.332-0.852,0.497-1.065,0.497c-0.213,0-0.32-0.236-0.32-0.709V12.17c0-0.307,0.03-0.526,0.089-0.656
		s0.231-0.266,0.515-0.408c0.71-0.354,1.544-0.685,2.503-0.993c0.958-0.307,2.088-0.461,3.391-0.461
		c2.414,0,4.219,0.615,5.415,1.844c1.195,1.23,1.793,3.133,1.793,5.71v8.087c0,0.307,0,0.645,0,1.01c0,0.367,0.005,0.74,0.018,1.117
		c0.012,0.379,0.023,0.74,0.036,1.082c0.012,0.343,0.029,0.645,0.053,0.904c0.047,0.473,0.023,0.732-0.071,0.781
		c-0.095,0.047-0.261,0.07-0.497,0.07H124.151z M123.654,20.469c-1.349,0.023-2.462,0.125-3.337,0.302
		c-0.876,0.177-1.58,0.42-2.113,0.728c-0.532,0.307-0.894,0.674-1.083,1.1c-0.19,0.425-0.284,0.898-0.284,1.418
		c0,0.758,0.225,1.342,0.674,1.756s1.077,0.621,1.882,0.621c1.278,0,2.302-0.467,3.071-1.401
		C123.233,24.057,123.63,22.55,123.654,20.469z"/>
	<path d="M146.163,30.045c-0.261,0.118-0.586,0.225-0.976,0.319c-0.391,0.095-0.817,0.171-1.279,0.23
		c-0.461,0.06-0.94,0.095-1.438,0.106s-0.971-0.006-1.42-0.053c-1.491-0.119-2.811-0.461-3.959-1.029
		c-1.148-0.566-2.112-1.307-2.894-2.217s-1.373-1.979-1.775-3.209c-0.403-1.229-0.604-2.565-0.604-4.008
		c0-1.513,0.236-2.909,0.71-4.186c0.473-1.277,1.142-2.376,2.006-3.298c0.864-0.922,1.905-1.637,3.124-2.146
		s2.574-0.763,4.065-0.763c0.686,0,1.438,0.048,2.254,0.142c0.817,0.095,1.567,0.261,2.255,0.497
		c0.213,0.071,0.337,0.154,0.373,0.249c0.035,0.095,0.041,0.272,0.018,0.532l-0.355,2.731c-0.047,0.284-0.124,0.474-0.23,0.568
		c-0.106,0.095-0.338,0.083-0.692-0.036c-0.497-0.189-1.101-0.325-1.812-0.408c-0.709-0.083-1.337-0.112-1.881-0.089
		c-1.633,0.048-2.894,0.633-3.781,1.756s-1.332,2.606-1.332,4.451c0,1.773,0.42,3.204,1.26,4.291c0.84,1.088,2.018,1.715,3.533,1.88
		c0.757,0.118,1.509,0.136,2.254,0.054c0.745-0.083,1.403-0.219,1.971-0.408c0.378-0.118,0.609-0.147,0.692-0.089
		c0.082,0.06,0.136,0.22,0.16,0.479l0.213,2.73c0.023,0.283,0.006,0.479-0.054,0.585S146.376,29.927,146.163,30.045z"/>
	<path d="M163.348,30.045c-0.262,0.118-0.586,0.225-0.977,0.319s-0.816,0.171-1.278,0.23s-0.94,0.095-1.438,0.106
		c-0.496,0.012-0.971-0.006-1.42-0.053c-1.49-0.119-2.811-0.461-3.959-1.029c-1.148-0.566-2.111-1.307-2.893-2.217
		s-1.373-1.979-1.775-3.209c-0.403-1.229-0.604-2.565-0.604-4.008c0-1.513,0.236-2.909,0.709-4.186
		c0.474-1.277,1.143-2.376,2.007-3.298c0.864-0.922,1.905-1.637,3.124-2.146s2.574-0.763,4.065-0.763
		c0.687,0,1.438,0.048,2.255,0.142c0.816,0.095,1.567,0.261,2.254,0.497c0.213,0.071,0.338,0.154,0.373,0.249
		c0.035,0.095,0.041,0.272,0.018,0.532l-0.355,2.731c-0.047,0.284-0.123,0.474-0.23,0.568c-0.105,0.095-0.337,0.083-0.691-0.036
		c-0.498-0.189-1.102-0.325-1.812-0.408c-0.71-0.083-1.337-0.112-1.882-0.089c-1.633,0.048-2.893,0.633-3.781,1.756
		c-0.887,1.123-1.331,2.606-1.331,4.451c0,1.773,0.42,3.204,1.261,4.291c0.84,1.088,2.018,1.715,3.532,1.88
		c0.757,0.118,1.509,0.136,2.255,0.054c0.745-0.083,1.402-0.219,1.971-0.408c0.378-0.118,0.609-0.147,0.691-0.089
		c0.083,0.06,0.137,0.22,0.16,0.479l0.213,2.73c0.023,0.283,0.006,0.479-0.053,0.585C163.696,29.814,163.561,29.927,163.348,30.045z
		"/>
	<path d="M169.063,7.275c-0.781,0-1.432-0.271-1.952-0.816c-0.521-0.543-0.781-1.206-0.781-1.986s0.254-1.448,0.763-2.004
		c0.51-0.555,1.166-0.833,1.971-0.833s1.468,0.278,1.988,0.833c0.521,0.556,0.781,1.224,0.781,2.004s-0.261,1.443-0.781,1.986
		C170.53,7.004,169.867,7.275,169.063,7.275z M167.252,30.188c-0.213,0-0.361-0.049-0.443-0.143
		c-0.084-0.095-0.125-0.283-0.125-0.567V11c0-0.284,0.036-0.473,0.107-0.568c0.07-0.094,0.225-0.142,0.461-0.142h3.516
		c0.236,0,0.396,0.047,0.479,0.142c0.083,0.095,0.125,0.284,0.125,0.568v18.478c0,0.284-0.042,0.473-0.125,0.567
		c-0.083,0.094-0.242,0.143-0.479,0.143H167.252z"/>
	<path d="M180.602,29.478c0,0.284-0.048,0.473-0.143,0.567c-0.094,0.094-0.271,0.143-0.532,0.143h-3.302
		c-0.284,0-0.474-0.06-0.568-0.178c-0.095-0.119-0.142-0.308-0.142-0.567V15.575c0-0.898,0.005-1.809,0.018-2.731
		c0.012-0.922-0.018-1.62-0.089-2.093c-0.047-0.26-0.023-0.426,0.071-0.497s0.308-0.106,0.64-0.106h3.372
		c0.261,0,0.427,0.024,0.497,0.071c0.071,0.047,0.107,0.177,0.107,0.39v1.348c0.496-0.52,1.141-0.999,1.934-1.437
		c0.793-0.438,1.604-0.656,2.433-0.656c2.366,0,4.101,0.674,5.202,2.021c1.1,1.348,1.65,3.311,1.65,5.888v11.704
		c0,0.284-0.048,0.473-0.143,0.567c-0.094,0.094-0.271,0.143-0.532,0.143h-3.302c-0.474,0-0.71-0.248-0.71-0.745V18.483
		c0-2.861-0.864-4.292-2.592-4.292c-1.207,0-2.154,0.39-2.841,1.17s-1.029,1.844-1.029,3.192V29.478z"/>
	<path d="M212.875,20.93c-0.024,0.284-0.09,0.503-0.195,0.656c-0.107,0.154-0.303,0.23-0.586,0.23H200.98
		c0.166,1.585,0.668,2.756,1.51,3.512c0.84,0.757,1.84,1.158,3,1.205c1.088,0.049,2.041-0.059,2.857-0.318s1.604-0.627,2.361-1.1
		c0.331-0.213,0.556-0.271,0.674-0.178c0.119,0.096,0.178,0.344,0.178,0.745v2.66c0,0.26-0.029,0.437-0.088,0.532
		c-0.061,0.094-0.195,0.225-0.408,0.39c-0.688,0.474-1.557,0.827-2.61,1.064c-1.054,0.235-2.089,0.354-3.106,0.354
		c-2.84,0-5.084-0.91-6.729-2.73s-2.467-4.41-2.467-7.768c0-1.253,0.165-2.506,0.496-3.76c0.332-1.253,0.864-2.382,1.598-3.387
		c0.734-1.004,1.634-1.82,2.699-2.447c1.064-0.626,2.331-0.94,3.799-0.94c1.491,0,2.752,0.272,3.781,0.816
		c1.029,0.544,1.869,1.277,2.521,2.199c0.651,0.922,1.118,1.993,1.403,3.21c0.283,1.218,0.426,2.513,0.426,3.884V20.93z
		 M204.851,13.766c-0.497,0-0.958,0.119-1.385,0.355c-0.426,0.236-0.799,0.544-1.118,0.922c-0.32,0.378-0.598,0.816-0.834,1.313
		c-0.237,0.497-0.391,1.017-0.462,1.561h7.207c0-0.473-0.077-0.958-0.23-1.454c-0.154-0.497-0.367-0.94-0.64-1.33
		c-0.271-0.39-0.621-0.715-1.047-0.976C205.916,13.896,205.418,13.766,204.851,13.766z"/>
	<path d="M220.58,32.842c-0.115,0-0.209-0.008-0.283-0.024s-0.152-0.082-0.234-0.196c-1.381-1.84-2.47-3.761-3.268-5.764
		c-0.797-2.004-1.195-4.023-1.195-6.06c0-2.02,0.398-4.022,1.195-6.009c0.798-1.987,1.887-3.908,3.268-5.764
		c0.082-0.099,0.148-0.168,0.197-0.209c0.049-0.041,0.139-0.062,0.271-0.062h1.75c0.246,0,0.383,0.037,0.407,0.111
		c0.024,0.074-0.021,0.218-0.136,0.431c-1.085,1.987-1.947,3.953-2.589,5.899s-0.962,3.814-0.962,5.603
		c0,1.79,0.309,3.683,0.925,5.677c0.616,1.996,1.5,3.962,2.65,5.899c0.099,0.164,0.132,0.283,0.099,0.357
		c-0.033,0.073-0.164,0.11-0.395,0.11H220.58z"/>
	<path d="M225.412,29.591c-0.147,0-0.263-0.017-0.345-0.05c-0.083-0.032-0.124-0.164-0.124-0.394V11.168
		c0-0.181,0.021-0.316,0.063-0.407c0.041-0.09,0.176-0.135,0.406-0.135h4.389c0.921,0,1.755,0.103,2.503,0.308
		c0.747,0.206,1.385,0.514,1.911,0.924c0.525,0.411,0.932,0.932,1.221,1.564c0.287,0.632,0.432,1.367,0.432,2.205
		c0,0.411-0.063,0.817-0.186,1.219c-0.123,0.403-0.301,0.78-0.53,1.133c-0.23,0.353-0.51,0.673-0.839,0.96
		c-0.328,0.288-0.698,0.53-1.109,0.727c0.494,0.181,0.934,0.419,1.32,0.714c0.385,0.296,0.715,0.629,0.985,0.998
		c0.271,0.369,0.477,0.76,0.616,1.17s0.21,0.821,0.21,1.231c0,1.872-0.592,3.31-1.775,4.31c-1.184,1.002-2.976,1.503-5.375,1.503
		H225.412z M228.248,21.118v5.493h0.986c0.739,0,1.348-0.07,1.824-0.21s0.859-0.328,1.146-0.566
		c0.287-0.237,0.488-0.525,0.604-0.862c0.115-0.336,0.174-0.701,0.174-1.096s-0.063-0.76-0.186-1.096
		c-0.123-0.337-0.338-0.629-0.641-0.875c-0.305-0.246-0.715-0.439-1.233-0.578c-0.518-0.14-1.163-0.21-1.936-0.21H228.248z
		 M228.297,13.606v4.754h1.085c0.592,0,1.085-0.065,1.479-0.197c0.395-0.131,0.711-0.312,0.949-0.542
		c0.238-0.229,0.406-0.496,0.506-0.8c0.098-0.304,0.147-0.636,0.147-0.998c0-0.295-0.041-0.579-0.123-0.85
		c-0.083-0.271-0.226-0.505-0.432-0.702c-0.206-0.197-0.481-0.357-0.826-0.48c-0.345-0.124-0.772-0.185-1.282-0.185H228.297z"/>
	<path d="M250.562,23.162c-0.017,0.197-0.062,0.35-0.136,0.456s-0.21,0.16-0.407,0.16h-7.717c0.114,1.101,0.464,1.913,1.048,2.438
		c0.583,0.525,1.277,0.805,2.083,0.838c0.756,0.033,1.418-0.041,1.985-0.223c0.566-0.18,1.113-0.435,1.64-0.764
		c0.229-0.147,0.386-0.188,0.468-0.123c0.082,0.066,0.124,0.238,0.124,0.518v1.848c0,0.18-0.021,0.303-0.062,0.369
		c-0.042,0.065-0.136,0.156-0.284,0.271c-0.477,0.328-1.081,0.574-1.813,0.738s-1.45,0.246-2.157,0.246
		c-1.973,0-3.529-0.632-4.672-1.896c-1.143-1.264-1.714-3.063-1.714-5.394c0-0.87,0.114-1.74,0.346-2.61
		c0.229-0.871,0.6-1.655,1.109-2.353c0.509-0.698,1.134-1.265,1.874-1.7c0.739-0.435,1.618-0.653,2.638-0.653
		c1.035,0,1.911,0.189,2.626,0.566c0.715,0.378,1.298,0.887,1.751,1.527c0.451,0.64,0.776,1.383,0.974,2.229
		c0.197,0.846,0.296,1.745,0.296,2.697V23.162z M244.989,18.188c-0.346,0-0.666,0.082-0.962,0.246
		c-0.296,0.165-0.555,0.378-0.776,0.641s-0.415,0.566-0.579,0.911c-0.165,0.345-0.271,0.706-0.321,1.083h5.006
		c0-0.328-0.054-0.664-0.161-1.01c-0.106-0.344-0.255-0.652-0.443-0.923c-0.189-0.271-0.432-0.497-0.728-0.678
		C245.729,18.278,245.384,18.188,244.989,18.188z"/>
	<path d="M260.029,29.418c-0.329,0.148-0.724,0.275-1.184,0.383c-0.46,0.105-0.986,0.151-1.578,0.135
		c-0.608-0.016-1.158-0.168-1.651-0.455s-0.855-0.637-1.085-1.047c-0.23-0.477-0.37-1.014-0.42-1.613
		c-0.049-0.6-0.073-1.375-0.073-2.328V18.68h-1.751c-0.313,0-0.469-0.164-0.469-0.492v-2.044c0-0.328,0.156-0.493,0.469-0.493h1.751
		v-3.276c0-0.328,0.164-0.493,0.493-0.493h2.268c0.313,0,0.469,0.165,0.469,0.493v3.276h2.096c0.197,0,0.324,0.037,0.383,0.111
		c0.057,0.074,0.086,0.201,0.086,0.382v2.044c0,0.181-0.029,0.308-0.086,0.381c-0.059,0.074-0.186,0.111-0.383,0.111h-2.096v5.518
		c0,0.591,0,1.071,0,1.44c0,0.37,0.017,0.612,0.05,0.727c0.065,0.313,0.205,0.509,0.419,0.591c0.213,0.083,0.443,0.107,0.69,0.074
		c0.246-0.033,0.484-0.09,0.715-0.172s0.411-0.156,0.542-0.223c0.132-0.064,0.23-0.068,0.296-0.012
		c0.065,0.058,0.107,0.177,0.124,0.357l0.222,1.848c0.016,0.146,0.008,0.266-0.024,0.356
		C260.268,29.274,260.177,29.353,260.029,29.418z"/>
	<path d="M269.546,29.641c-0.148,0-0.243-0.018-0.284-0.05s-0.062-0.132-0.062-0.296v-1.059c-0.279,0.443-0.735,0.82-1.368,1.133
		s-1.262,0.469-1.887,0.469c-0.674,0-1.323-0.096-1.947-0.283c-0.625-0.189-1.139-0.485-1.541-0.887
		c-0.403-0.403-0.72-0.887-0.949-1.453c-0.23-0.567-0.346-1.211-0.346-1.934c0-0.854,0.206-1.626,0.617-2.316
		c0.41-0.689,0.957-1.227,1.64-1.613c0.682-0.385,1.491-0.664,2.428-0.837c0.938-0.173,1.973-0.226,3.107-0.159
		c-0.099-1.298-0.658-2.012-1.677-2.144c-0.329-0.033-0.662-0.024-0.999,0.024c-0.337,0.049-0.665,0.127-0.986,0.234
		c-0.32,0.107-0.628,0.23-0.924,0.369c-0.296,0.14-0.56,0.283-0.789,0.432c-0.346,0.229-0.592,0.344-0.74,0.344
		c-0.147,0-0.222-0.164-0.222-0.492v-2.044c0-0.213,0.021-0.365,0.062-0.456s0.16-0.185,0.357-0.284
		c0.493-0.246,1.073-0.476,1.738-0.689c0.666-0.213,1.45-0.32,2.354-0.32c1.677,0,2.93,0.427,3.761,1.281
		c0.829,0.854,1.245,2.176,1.245,3.965v5.615c0,0.215,0,0.448,0,0.703c0,0.254,0.004,0.513,0.012,0.775
		c0.009,0.263,0.017,0.514,0.024,0.751c0.009,0.237,0.021,0.447,0.037,0.628c0.033,0.328,0.017,0.51-0.049,0.542
		c-0.066,0.032-0.182,0.05-0.346,0.05H269.546z M269.2,22.842c-0.937,0.018-1.71,0.087-2.317,0.21
		c-0.608,0.123-1.098,0.292-1.467,0.505c-0.37,0.213-0.621,0.468-0.752,0.764c-0.132,0.295-0.197,0.624-0.197,0.984
		c0,0.526,0.155,0.933,0.468,1.22c0.313,0.288,0.748,0.431,1.307,0.431c0.888,0,1.599-0.324,2.133-0.973
		S269.184,24.287,269.2,22.842z"/>
	<path d="M274.625,32.842c-0.23,0-0.362-0.037-0.395-0.11c-0.033-0.074,0-0.193,0.099-0.357c1.15-1.938,2.034-3.903,2.65-5.899
		c0.616-1.994,0.925-3.887,0.925-5.677c0-1.789-0.321-3.657-0.962-5.603s-1.504-3.912-2.589-5.899
		c-0.115-0.213-0.16-0.357-0.136-0.431c0.024-0.074,0.16-0.111,0.407-0.111h1.75c0.132,0,0.222,0.021,0.271,0.062
		c0.049,0.042,0.115,0.111,0.197,0.209c1.381,1.856,2.47,3.777,3.267,5.764s1.196,3.99,1.196,6.009c0,2.036-0.399,4.056-1.196,6.06
		c-0.797,2.003-1.886,3.924-3.267,5.764c-0.082,0.114-0.16,0.18-0.234,0.196s-0.169,0.024-0.283,0.024H274.625z"/>
</g>
</svg>
