<?xml version="1.0" encoding="utf-8"?>
<!-- Generator: Adobe Illustrator 14.0.0, SVG Export Plug-In . SVG Version: 6.00 Build 43363)  -->
<!DOCTYPE svg PUBLIC "-//W3C//DTD SVG 1.1//EN" "http://www.w3.org/Graphics/SVG/1.1/DTD/svg11.dtd">
<svg version="1.1" id="레이어_1" xmlns="http://www.w3.org/2000/svg" xmlns:xlink="http://www.w3.org/1999/xlink" x="0px"
	 y="0px" width="680.32px" height="680.32px" viewBox="0 0 680.32 680.32" enable-background="new 0 0 680.32 680.32"
	 xml:space="preserve">
<g>
	<path fill="#EF4136" d="M146.833,88.533c0-2.352,0.348-4.533,1.044-6.545c0.696-2.011,1.717-3.744,3.063-5.199
		c1.346-1.454,2.994-2.6,4.944-3.435s4.193-1.253,6.731-1.253c2.537,0,4.796,0.418,6.777,1.253c1.98,0.835,3.644,1.981,4.99,3.435
		c1.346,1.455,2.368,3.188,3.064,5.199c0.696,2.012,1.044,4.194,1.044,6.545c0,2.352-0.348,4.534-1.044,6.545
		c-0.696,2.012-1.718,3.745-3.064,5.199c-1.346,1.455-3.01,2.6-4.99,3.435c-1.981,0.835-4.24,1.253-6.777,1.253
		c-2.538,0-4.781-0.418-6.731-1.253s-3.598-1.98-4.944-3.435c-1.346-1.454-2.367-3.187-3.063-5.199
		C147.181,93.067,146.833,90.885,146.833,88.533z M171.018,88.394c0-1.516-0.139-3.033-0.418-4.549
		c-0.278-1.516-0.743-2.885-1.393-4.108c-0.65-1.222-1.508-2.212-2.576-2.971c-1.067-0.758-2.407-1.137-4.015-1.137
		c-1.578,0-2.901,0.379-3.969,1.137c-1.068,0.759-1.927,1.749-2.577,2.971c-0.65,1.223-1.106,2.592-1.369,4.108
		c-0.263,1.517-0.395,3.033-0.395,4.549c0,1.578,0.131,3.149,0.395,4.711c0.263,1.563,0.719,2.956,1.369,4.178
		c0.65,1.223,1.509,2.221,2.577,2.994c1.067,0.774,2.391,1.161,3.969,1.161c1.608,0,2.948-0.395,4.015-1.184
		c1.068-0.789,1.926-1.802,2.576-3.041c0.65-1.237,1.114-2.623,1.393-4.154c0.279-1.532,0.418-3.056,0.418-4.572V88.394z"/>
	<path d="M192.278,95.821c-0.248,0-0.55-0.015-0.905-0.046c-0.356-0.03-0.696-0.1-1.021-0.208c-0.325-0.108-0.596-0.263-0.813-0.464
		c-0.217-0.201-0.325-0.441-0.325-0.72c0-0.402,0.186-0.727,0.557-0.975c0.371-0.248,0.975-0.372,1.81-0.372
		c0.743,0,1.354-0.154,1.833-0.464c0.479-0.309,0.859-0.72,1.137-1.23c0.279-0.51,0.464-1.091,0.557-1.741s0.124-1.315,0.093-1.996
		c0-0.773-0.101-1.54-0.302-2.298s-0.48-1.431-0.835-2.02c-0.356-0.587-0.805-1.06-1.346-1.416
		c-0.542-0.355-1.153-0.534-1.833-0.534c-0.681,0-1.3,0.209-1.857,0.627c-0.557,0.417-0.835,0.967-0.835,1.648v17.407
		c0,0.712,0.387,1.176,1.161,1.393c0.773,0.278,1.161,0.635,1.161,1.068c0,0.65-0.31,0.975-0.929,0.975h-8.727
		c-0.62,0-0.929-0.325-0.929-0.975c0-0.402,0.387-0.743,1.161-1.021c0.773-0.216,1.161-0.696,1.161-1.439V83.613
		c0-0.433-0.356-0.773-1.068-1.021c-0.743-0.216-1.114-0.587-1.114-1.114c0-0.34,0.232-0.65,0.696-0.929
		c0.464-0.278,1.044-0.518,1.741-0.719c0.696-0.201,1.478-0.379,2.344-0.534c0.866-0.154,1.694-0.278,2.483-0.371
		c0.79-0.093,1.493-0.163,2.112-0.209c0.619-0.046,1.052-0.069,1.3-0.069c1.207,0,2.429,0.162,3.667,0.487
		c1.237,0.325,2.359,0.835,3.366,1.532c1.005,0.696,1.833,1.571,2.483,2.623c0.65,1.053,0.975,2.291,0.975,3.714
		c0,1.517-0.217,2.832-0.65,3.945c-0.434,1.114-1.044,2.042-1.833,2.785c-0.789,0.743-1.741,1.285-2.855,1.625
		C194.785,95.698,193.578,95.852,192.278,95.821z"/>
	<path d="M211.217,87.883c0.526,0.217,1.068,0.325,1.625,0.325c0.278,0,0.665-0.023,1.16-0.069c0.495-0.046,0.897-0.07,1.207-0.07
		c0.68,0,1.23,0.116,1.648,0.348c0.418,0.232,0.626,0.658,0.626,1.277s-0.217,1.037-0.65,1.253
		c-0.434,0.217-1.021,0.325-1.764,0.325c-0.588,0-1.13-0.023-1.625-0.07c-0.496-0.046-0.759-0.069-0.79-0.069
		c-0.248,0-0.565,0.062-0.952,0.186c-0.387,0.124-0.58,0.449-0.58,0.975v8.124c0,0.65,0.131,1.021,0.395,1.114
		c0.263,0.093,0.642,0.155,1.137,0.186c0.557,0.031,1.246,0.054,2.066,0.07c0.819,0.016,1.617,0.008,2.391-0.023
		c0.619-0.03,1.207-0.146,1.764-0.348c0.557-0.201,1.037-0.502,1.439-0.905c0.464-0.464,0.859-0.835,1.184-1.114
		c0.325-0.279,0.534-0.418,0.626-0.418c0.279-0.03,0.526,0.023,0.743,0.163c0.216,0.139,0.325,0.348,0.325,0.626
		c0,0.155-0.063,0.403-0.186,0.743c-0.124,0.341-0.278,0.72-0.464,1.137c-0.186,0.418-0.387,0.829-0.604,1.23
		c-0.217,0.402-0.418,0.712-0.604,0.928c-0.217,0.248-0.503,0.418-0.859,0.511c-0.356,0.093-0.58,0.139-0.673,0.139h-15.968
		c-0.31,0-0.542-0.1-0.696-0.302c-0.155-0.201-0.232-0.471-0.232-0.813c0-0.216,0.124-0.386,0.372-0.51
		c0.247-0.124,0.51-0.248,0.789-0.372c0.278-0.123,0.541-0.293,0.789-0.511c0.248-0.216,0.372-0.526,0.372-0.928V82.174
		c0-0.372-0.124-0.665-0.372-0.882c-0.248-0.216-0.511-0.402-0.789-0.557c-0.279-0.155-0.542-0.302-0.789-0.441
		c-0.248-0.139-0.372-0.332-0.372-0.58c0-0.65,0.309-0.975,0.929-0.975h15.179c0.371,0,0.719,0.116,1.044,0.348
		c0.325,0.232,0.619,0.534,0.882,0.905c0.263,0.372,0.479,0.79,0.65,1.253c0.169,0.464,0.255,0.929,0.255,1.393
		c0,0.093-0.04,0.217-0.116,0.372c-0.078,0.155-0.178,0.278-0.302,0.371c-0.124,0.093-0.263,0.155-0.417,0.186
		c-0.155,0.031-0.325-0.031-0.511-0.186c-0.712-0.557-1.277-0.982-1.694-1.276c-0.418-0.294-0.859-0.518-1.323-0.673
		c-0.464-0.155-1.014-0.248-1.648-0.279c-0.634-0.03-1.493-0.046-2.576-0.046c-0.898,0-1.478,0.124-1.741,0.372
		c-0.263,0.248-0.395,0.588-0.395,1.021c0,1.207,0.007,2.159,0.023,2.855c0.015,0.696,0.023,1.223,0.023,1.578
		c0,0.356,0.007,0.596,0.023,0.72C211.209,87.775,211.217,87.853,211.217,87.883z"/>
	<path d="M245.985,82.174c0,1.114,0.015,2.414,0.046,3.899c0.03,1.485,0.062,3.033,0.093,4.642c0.03,1.609,0.046,3.203,0.046,4.781
		s-0.008,3.002-0.023,4.271c-0.016,1.27-0.055,2.298-0.116,3.087c-0.063,0.789-0.155,1.215-0.278,1.277
		c-0.155,0.155-0.356,0.271-0.604,0.348c-0.248,0.077-0.496,0.123-0.743,0.139c-0.248,0.015-0.496-0.016-0.743-0.093
		c-0.249-0.077-0.434-0.209-0.557-0.395c-1.981-2.723-4.093-5.578-6.336-8.564c-2.244-2.986-4.604-5.841-7.079-8.564l-0.046,14.065
		c0,0.681,0.387,1.13,1.161,1.346c0.773,0.278,1.161,0.635,1.161,1.068c0,0.65-0.31,0.975-0.929,0.975h-5.941
		c-0.62,0-0.929-0.325-0.929-0.975c0-0.402,0.387-0.743,1.161-1.021c0.773-0.216,1.161-0.68,1.161-1.393V82.174
		c0-0.681-0.388-1.161-1.161-1.439c-0.774-0.216-1.161-0.557-1.161-1.021c0-0.68,0.309-1.021,0.929-1.021h5.106
		c0.216,0,0.611,0.286,1.184,0.858c0.572,0.573,1.23,1.316,1.973,2.229c0.743,0.913,1.547,1.942,2.414,3.087
		c0.866,1.145,1.733,2.267,2.6,3.365c0.866,1.099,1.686,2.135,2.46,3.11c0.773,0.975,1.439,1.757,1.996,2.344
		c0-0.03,0-0.123,0-0.278c0-0.154-0.008-0.596-0.023-1.323c-0.016-0.727-0.023-1.857-0.023-3.389c0-1.532,0.015-3.706,0.046-6.522
		c0-0.619-0.51-1.129-1.532-1.532c-0.495-0.186-0.743-0.479-0.743-0.882c0-0.68,0.309-1.021,0.928-1.021h5.849
		c0.65,0,0.975,0.341,0.975,1.021c0,0.434-0.387,0.759-1.16,0.975C246.372,81.013,245.985,81.493,245.985,82.174z"/>
	<path fill="#EF4136" d="M280.521,74.7c-0.31,0.063-0.588,0.139-0.836,0.232c-0.248,0.093-0.472,0.232-0.673,0.418
		c-0.202,0.186-0.395,0.441-0.58,0.766c-0.186,0.325-0.372,0.751-0.557,1.277c-1.393,4.271-2.793,8.526-4.201,12.765
		c-1.409,4.24-2.808,8.495-4.201,12.766c-0.186,0.557-0.612,0.952-1.277,1.184c-0.666,0.232-1.308,0.348-1.926,0.348
		c-0.65,0-1.276-0.1-1.88-0.302c-0.604-0.201-1.014-0.58-1.23-1.137l-9.794-25.299c-0.155-0.371-0.417-0.758-0.789-1.161
		c-0.372-0.401-0.774-0.789-1.207-1.16c-0.434-0.372-0.859-0.72-1.276-1.044c-0.418-0.325-0.735-0.611-0.952-0.859
		c0-0.835,0.387-1.253,1.161-1.253h11.93c0.773,0,1.161,0.418,1.161,1.253c0,0.526-0.294,0.898-0.882,1.114
		c-1.331,0.588-1.996,1.253-1.996,1.996c0,0.031,0.154,0.464,0.464,1.299c0.309,0.836,0.704,1.896,1.184,3.18
		c0.479,1.284,1.005,2.669,1.579,4.154c0.572,1.485,1.106,2.886,1.602,4.201c0.495,1.315,0.92,2.445,1.276,3.389
		c0.355,0.944,0.564,1.478,0.626,1.601c0.155,0.341,0.333,0.488,0.534,0.441c0.201-0.046,0.395-0.193,0.58-0.441
		c0.309-1.083,0.758-2.483,1.346-4.201c0.587-1.718,1.184-3.474,1.787-5.269c0.604-1.794,1.129-3.481,1.578-5.06
		c0.448-1.578,0.673-2.769,0.673-3.574c0-0.773-0.387-1.3-1.161-1.578c-0.743-0.279-1.114-0.68-1.114-1.207
		c0-0.804,0.402-1.207,1.207-1.207h7.52c0.402,0,0.696,0.116,0.882,0.348c0.186,0.232,0.279,0.488,0.279,0.766
		s-0.07,0.542-0.209,0.789C281.009,74.484,280.8,74.639,280.521,74.7z"/>
	<path d="M295.654,104.455c-0.712,0-1.068-0.34-1.068-1.021c0-0.402,0.263-0.696,0.789-0.882c0.588-0.216,1.037-0.479,1.346-0.789
		c0.309-0.309,0.402-0.634,0.279-0.975l-1.114-3.575c-0.681-0.154-1.424-0.216-2.228-0.186c-1.052,0.248-1.966,0.248-2.739,0
		c-0.712-0.216-1.068-0.619-1.068-1.207c0-0.525,0.193-0.874,0.581-1.044c0.386-0.169,0.952-0.255,1.694-0.255
		c0.402,0,0.858,0.008,1.369,0.023c0.511,0.016,0.874-0.1,1.091-0.348c-0.031-0.278-0.17-0.796-0.417-1.555
		c-0.248-0.758-0.519-1.555-0.813-2.391c-0.294-0.835-0.58-1.617-0.859-2.344c-0.278-0.727-0.464-1.214-0.557-1.462
		c-0.31,0.681-0.689,1.648-1.137,2.901c-0.449,1.253-0.983,2.762-1.602,4.526c-0.712,1.98-1.223,3.582-1.532,4.804
		c-0.31,1.223-0.464,2.05-0.464,2.483c0,0.65,0.325,1.083,0.975,1.3c0.68,0.279,1.021,0.604,1.021,0.975
		c0,0.681-0.356,1.021-1.067,1.021H282.1c-0.341,0-0.55-0.093-0.626-0.278c-0.078-0.186-0.116-0.448-0.116-0.79
		c0.68-0.525,1.307-1.036,1.88-1.532c0.572-0.495,0.952-0.99,1.137-1.485c1.207-3.404,2.336-6.792,3.389-10.166
		c1.052-3.373,2.151-6.792,3.296-10.259c0.154-0.433,0.433-0.766,0.835-0.998c0.402-0.232,0.82-0.348,1.253-0.348
		c0.526,0,1.075,0.101,1.648,0.302c0.572,0.202,0.936,0.503,1.091,0.905c1.207,3.405,2.406,6.785,3.598,10.143
		c1.191,3.358,2.375,6.739,3.551,10.143c0.155,0.371,0.41,0.681,0.766,0.928c0.355,0.248,0.874,0.635,1.555,1.161
		c0.34,0.248,0.65,0.472,0.928,0.673c0.279,0.202,0.418,0.395,0.418,0.581c0,0.681-0.341,1.021-1.021,1.021H295.654z"/>
	<path d="M318.957,104.501c-3.683,0-6.545-1.3-8.588-3.899c-1.888-2.444-2.832-5.431-2.832-8.959c0-3.435,0.882-6.39,2.646-8.866
		c1.98-2.662,4.75-3.992,8.309-3.992c0.216,0,0.549,0.023,0.998,0.069c0.448,0.046,1.013,0.132,1.694,0.255
		c0.309,0.063,0.604,0.109,0.882,0.139c0.279,0.031,0.495,0.046,0.65,0.046c0.031-0.03,0.124-0.093,0.279-0.186
		c0.154-0.093,0.325-0.186,0.51-0.278c0.186-0.093,0.355-0.17,0.511-0.232c0.155-0.062,0.248-0.093,0.279-0.093
		c0.68,0,1.315,0.805,1.903,2.414c0.279,0.743,0.479,1.385,0.604,1.926c0.124,0.542,0.186,0.983,0.186,1.323
		c0,0.31-0.124,0.534-0.371,0.673c-0.248,0.139-0.573,0.209-0.975,0.209c-1.084-0.99-2.089-1.811-3.018-2.46
		c-0.526-0.371-1.099-0.665-1.717-0.882c-0.62-0.216-1.285-0.325-1.996-0.325c-1.95,0-3.389,1.176-4.317,3.528
		c-0.681,1.578-1.021,3.652-1.021,6.22c0,3.002,0.372,5.308,1.114,6.917c1.083,2.352,2.8,3.528,5.152,3.528
		c0.587,0,1.176-0.1,1.764-0.302c0.587-0.201,1.16-0.472,1.717-0.813c2.042-1.3,3.187-1.965,3.435-1.996
		c0.216-0.03,0.402,0.008,0.557,0.116c0.154,0.109,0.278,0.24,0.371,0.395c0.093,0.155,0.155,0.302,0.186,0.441
		c0.03,0.139,0.007,0.426-0.07,0.859c-0.078,0.434-0.379,0.882-0.905,1.346c-0.526,0.464-1.377,0.959-2.553,1.485
		C322.33,104.037,320.535,104.501,318.957,104.501z"/>
	<path d="M340.774,104.501c-3.683,0-6.545-1.3-8.588-3.899c-1.888-2.444-2.832-5.431-2.832-8.959c0-3.435,0.882-6.39,2.646-8.866
		c1.98-2.662,4.75-3.992,8.309-3.992c0.216,0,0.549,0.023,0.999,0.069c0.448,0.046,1.013,0.132,1.694,0.255
		c0.309,0.063,0.604,0.109,0.882,0.139c0.278,0.031,0.494,0.046,0.649,0.046c0.031-0.03,0.124-0.093,0.279-0.186
		c0.154-0.093,0.324-0.186,0.51-0.278c0.187-0.093,0.355-0.17,0.511-0.232c0.155-0.062,0.248-0.093,0.279-0.093
		c0.68,0,1.314,0.805,1.902,2.414c0.279,0.743,0.479,1.385,0.604,1.926c0.124,0.542,0.186,0.983,0.186,1.323
		c0,0.31-0.124,0.534-0.371,0.673c-0.248,0.139-0.573,0.209-0.975,0.209c-1.084-0.99-2.089-1.811-3.018-2.46
		c-0.526-0.371-1.099-0.665-1.717-0.882c-0.62-0.216-1.285-0.325-1.997-0.325c-1.95,0-3.389,1.176-4.317,3.528
		c-0.681,1.578-1.021,3.652-1.021,6.22c0,3.002,0.372,5.308,1.114,6.917c1.083,2.352,2.8,3.528,5.152,3.528
		c0.588,0,1.176-0.1,1.765-0.302c0.587-0.201,1.16-0.472,1.717-0.813c2.043-1.3,3.188-1.965,3.436-1.996
		c0.216-0.03,0.401,0.008,0.557,0.116c0.154,0.109,0.278,0.24,0.371,0.395c0.094,0.155,0.155,0.302,0.187,0.441
		c0.03,0.139,0.007,0.426-0.07,0.859c-0.077,0.434-0.379,0.882-0.905,1.346s-1.377,0.959-2.553,1.485
		C344.147,104.037,342.353,104.501,340.774,104.501z"/>
	<path d="M352.101,104.455c-0.619,0-0.929-0.34-0.929-1.021c0-0.433,0.387-0.758,1.161-0.975c0.772-0.278,1.16-0.758,1.16-1.439
		V82.174c0-0.681-0.388-1.161-1.16-1.439c-0.774-0.216-1.161-0.557-1.161-1.021c0-0.65,0.31-0.975,0.929-0.975h8.727
		c0.619,0,0.929,0.325,0.929,0.975c0,0.434-0.402,0.774-1.207,1.021c-0.773,0.278-1.16,0.758-1.16,1.439v18.846
		c0,0.681,0.387,1.161,1.16,1.439c0.805,0.248,1.207,0.573,1.207,0.975c0,0.681-0.31,1.021-0.929,1.021H352.101z"/>
	<path d="M384.548,82.174c0,1.114,0.016,2.414,0.046,3.899c0.031,1.485,0.063,3.033,0.094,4.642c0.03,1.609,0.046,3.203,0.046,4.781
		s-0.008,3.002-0.023,4.271c-0.016,1.27-0.054,2.298-0.116,3.087c-0.062,0.789-0.154,1.215-0.278,1.277
		c-0.155,0.155-0.355,0.271-0.604,0.348c-0.248,0.077-0.495,0.123-0.742,0.139c-0.248,0.015-0.495-0.016-0.743-0.093
		c-0.248-0.077-0.434-0.209-0.557-0.395c-1.981-2.723-4.093-5.578-6.336-8.564c-2.244-2.986-4.604-5.841-7.079-8.564l-0.047,14.065
		c0,0.681,0.387,1.13,1.16,1.346c0.773,0.278,1.161,0.635,1.161,1.068c0,0.65-0.31,0.975-0.929,0.975h-5.941
		c-0.619,0-0.929-0.325-0.929-0.975c0-0.402,0.387-0.743,1.161-1.021c0.772-0.216,1.16-0.68,1.16-1.393V82.174
		c0-0.681-0.388-1.161-1.16-1.439c-0.774-0.216-1.161-0.557-1.161-1.021c0-0.68,0.31-1.021,0.929-1.021h5.105
		c0.217,0,0.611,0.286,1.185,0.858c0.572,0.573,1.229,1.316,1.973,2.229c0.742,0.913,1.547,1.942,2.414,3.087
		c0.865,1.145,1.732,2.267,2.599,3.365c0.866,1.099,1.687,2.135,2.461,3.11c0.772,0.975,1.438,1.757,1.996,2.344
		c0-0.03,0-0.123,0-0.278c0-0.154-0.009-0.596-0.023-1.323c-0.016-0.727-0.023-1.857-0.023-3.389c0-1.532,0.016-3.706,0.047-6.522
		c0-0.619-0.511-1.129-1.532-1.532c-0.495-0.186-0.743-0.479-0.743-0.882c0-0.68,0.31-1.021,0.929-1.021h5.849
		c0.65,0,0.976,0.341,0.976,1.021c0,0.434-0.388,0.759-1.161,0.975C384.935,81.013,384.548,81.493,384.548,82.174z"/>
	<path d="M396.849,87.883c0.526,0.217,1.067,0.325,1.625,0.325c0.278,0,0.665-0.023,1.16-0.069s0.897-0.07,1.207-0.07
		c0.681,0,1.23,0.116,1.647,0.348c0.418,0.232,0.627,0.658,0.627,1.277s-0.217,1.037-0.649,1.253
		c-0.434,0.217-1.021,0.325-1.765,0.325c-0.588,0-1.13-0.023-1.624-0.07c-0.496-0.046-0.759-0.069-0.789-0.069
		c-0.248,0-0.565,0.062-0.952,0.186c-0.387,0.124-0.58,0.449-0.58,0.975v8.124c0,0.65,0.132,1.021,0.395,1.114
		s0.642,0.155,1.138,0.186c0.557,0.031,1.245,0.054,2.065,0.07c0.819,0.016,1.616,0.008,2.391-0.023
		c0.618-0.03,1.207-0.146,1.764-0.348c0.558-0.201,1.037-0.502,1.439-0.905c0.464-0.464,0.858-0.835,1.184-1.114
		c0.325-0.279,0.533-0.418,0.627-0.418c0.278-0.03,0.525,0.023,0.742,0.163c0.216,0.139,0.325,0.348,0.325,0.626
		c0,0.155-0.063,0.403-0.186,0.743c-0.124,0.341-0.279,0.72-0.465,1.137c-0.186,0.418-0.387,0.829-0.604,1.23
		c-0.217,0.402-0.417,0.712-0.604,0.928c-0.217,0.248-0.503,0.418-0.858,0.511c-0.356,0.093-0.58,0.139-0.673,0.139h-15.969
		c-0.31,0-0.542-0.1-0.696-0.302c-0.155-0.201-0.231-0.471-0.231-0.813c0-0.216,0.123-0.386,0.371-0.51
		c0.247-0.124,0.511-0.248,0.789-0.372c0.278-0.123,0.541-0.293,0.789-0.511c0.247-0.216,0.371-0.526,0.371-0.928V82.174
		c0-0.372-0.124-0.665-0.371-0.882c-0.248-0.216-0.511-0.402-0.789-0.557s-0.542-0.302-0.789-0.441
		c-0.248-0.139-0.371-0.332-0.371-0.58c0-0.65,0.309-0.975,0.928-0.975h15.18c0.371,0,0.72,0.116,1.044,0.348
		c0.325,0.232,0.619,0.534,0.882,0.905c0.263,0.372,0.479,0.79,0.65,1.253c0.17,0.464,0.255,0.929,0.255,1.393
		c0,0.093-0.039,0.217-0.115,0.372c-0.078,0.155-0.179,0.278-0.302,0.371c-0.124,0.093-0.264,0.155-0.418,0.186
		c-0.155,0.031-0.325-0.031-0.511-0.186c-0.712-0.557-1.276-0.982-1.694-1.276c-0.418-0.294-0.858-0.518-1.323-0.673
		c-0.464-0.155-1.014-0.248-1.647-0.279c-0.635-0.03-1.494-0.046-2.576-0.046c-0.898,0-1.479,0.124-1.741,0.372
		c-0.263,0.248-0.395,0.588-0.395,1.021c0,1.207,0.007,2.159,0.023,2.855c0.015,0.696,0.023,1.223,0.023,1.578
		c0,0.356,0.007,0.596,0.022,0.72C396.841,87.775,396.849,87.853,396.849,87.883z"/>
	<path d="M426.65,70.615c-3.435,0.557-5.841,2.182-7.218,4.874c-1.378,2.692-2.065,7.489-2.065,14.39
		c0,6.933,0.688,11.744,2.065,14.437c1.377,2.692,3.783,4.317,7.218,4.874v2.042c-4.951-0.557-8.882-2.755-11.79-6.592
		c-2.909-3.837-4.363-8.757-4.363-14.761c0-5.972,1.454-10.877,4.363-14.715c2.908-3.836,6.839-6.034,11.79-6.591V70.615z"/>
	<path d="M441.18,104.78c-2.073,0-4.379-0.232-6.916-0.696c-3.56-0.649-5.338-1.547-5.338-2.692c0-0.186,0.354-0.542,1.067-1.068
		c0.711-0.526,1.067-1.207,1.067-2.042V78.089c0-0.557-0.464-0.975-1.393-1.253c-0.897-0.34-1.346-0.804-1.346-1.393
		c0-0.433,0.285-0.82,0.858-1.161c0.572-0.34,1.3-0.642,2.182-0.905c0.882-0.262,1.856-0.487,2.925-0.673
		c1.067-0.186,2.089-0.332,3.063-0.441c0.975-0.108,1.849-0.193,2.623-0.255c0.772-0.062,1.314-0.093,1.624-0.093
		c1.3,0,2.63,0.116,3.992,0.348c1.361,0.232,2.615,0.643,3.76,1.23c1.145,0.588,2.081,1.362,2.809,2.321
		c0.727,0.96,1.091,2.167,1.091,3.621c0,0.743-0.147,1.462-0.44,2.158c-0.295,0.696-0.682,1.339-1.161,1.927
		s-1.044,1.106-1.694,1.555c-0.649,0.449-1.331,0.797-2.042,1.044v0.557c0.866,0.372,1.709,0.797,2.529,1.277
		c0.82,0.48,1.539,1.044,2.159,1.694c0.618,0.65,1.121,1.393,1.509,2.229c0.386,0.835,0.58,1.78,0.58,2.832
		c0,1.857-0.302,3.428-0.905,4.711c-0.604,1.285-1.479,2.321-2.623,3.11c-1.146,0.789-2.553,1.362-4.224,1.717
		C445.265,104.602,443.346,104.78,441.18,104.78z M439.974,87.001c0-0.216,0.278-0.518,0.835-0.905
		c0.558-0.387,1.3-0.813,2.229-1.277c0.99-0.525,1.709-1.199,2.158-2.019c0.448-0.819,0.673-1.741,0.673-2.762
		c0-0.557-0.077-1.122-0.231-1.694c-0.155-0.572-0.38-1.091-0.674-1.555c-0.294-0.464-0.681-0.843-1.16-1.137
		c-0.48-0.294-1.044-0.441-1.694-0.441c-0.99,0-1.856,0.255-2.6,0.766c-0.742,0.511-1.114,1.23-1.114,2.159v20.564
		c0,0.495,0.124,0.905,0.372,1.23c0.247,0.325,0.564,0.588,0.951,0.789c0.387,0.202,0.813,0.348,1.276,0.441
		c0.465,0.093,0.913,0.139,1.347,0.139c0.866,0,1.608-0.162,2.228-0.487c0.619-0.325,1.13-0.766,1.532-1.323
		c0.401-0.557,0.696-1.214,0.882-1.973c0.186-0.758,0.278-1.57,0.278-2.437c0-1.485-0.317-2.708-0.951-3.667
		c-0.635-0.959-1.493-1.687-2.576-2.182c-1.27-0.587-2.213-1.044-2.832-1.37C440.282,87.535,439.974,87.25,439.974,87.001z"/>
	<path d="M464.668,87.883c0.526,0.217,1.067,0.325,1.625,0.325c0.278,0,0.665-0.023,1.16-0.069s0.897-0.07,1.207-0.07
		c0.681,0,1.23,0.116,1.647,0.348c0.418,0.232,0.627,0.658,0.627,1.277s-0.217,1.037-0.649,1.253
		c-0.434,0.217-1.021,0.325-1.765,0.325c-0.588,0-1.13-0.023-1.624-0.07c-0.496-0.046-0.759-0.069-0.789-0.069
		c-0.248,0-0.565,0.062-0.952,0.186c-0.387,0.124-0.58,0.449-0.58,0.975v8.124c0,0.65,0.132,1.021,0.395,1.114
		s0.642,0.155,1.138,0.186c0.557,0.031,1.245,0.054,2.065,0.07c0.819,0.016,1.616,0.008,2.391-0.023
		c0.618-0.03,1.207-0.146,1.764-0.348c0.558-0.201,1.037-0.502,1.439-0.905c0.464-0.464,0.858-0.835,1.184-1.114
		c0.325-0.279,0.533-0.418,0.627-0.418c0.278-0.03,0.525,0.023,0.742,0.163c0.216,0.139,0.325,0.348,0.325,0.626
		c0,0.155-0.063,0.403-0.186,0.743c-0.124,0.341-0.279,0.72-0.465,1.137c-0.186,0.418-0.387,0.829-0.604,1.23
		c-0.217,0.402-0.417,0.712-0.604,0.928c-0.217,0.248-0.503,0.418-0.858,0.511c-0.356,0.093-0.58,0.139-0.673,0.139h-15.969
		c-0.31,0-0.542-0.1-0.696-0.302c-0.155-0.201-0.231-0.471-0.231-0.813c0-0.216,0.123-0.386,0.371-0.51
		c0.247-0.124,0.511-0.248,0.789-0.372c0.278-0.123,0.541-0.293,0.789-0.511c0.247-0.216,0.371-0.526,0.371-0.928V82.174
		c0-0.372-0.124-0.665-0.371-0.882c-0.248-0.216-0.511-0.402-0.789-0.557s-0.542-0.302-0.789-0.441
		c-0.248-0.139-0.371-0.332-0.371-0.58c0-0.65,0.309-0.975,0.928-0.975h15.18c0.371,0,0.72,0.116,1.044,0.348
		c0.325,0.232,0.619,0.534,0.882,0.905c0.263,0.372,0.479,0.79,0.65,1.253c0.17,0.464,0.255,0.929,0.255,1.393
		c0,0.093-0.039,0.217-0.115,0.372c-0.078,0.155-0.179,0.278-0.302,0.371c-0.124,0.093-0.264,0.155-0.418,0.186
		c-0.155,0.031-0.325-0.031-0.511-0.186c-0.712-0.557-1.276-0.982-1.694-1.276c-0.418-0.294-0.858-0.518-1.323-0.673
		c-0.464-0.155-1.014-0.248-1.647-0.279c-0.635-0.03-1.494-0.046-2.576-0.046c-0.898,0-1.479,0.124-1.741,0.372
		c-0.263,0.248-0.395,0.588-0.395,1.021c0,1.207,0.007,2.159,0.023,2.855c0.015,0.696,0.023,1.223,0.023,1.578
		c0,0.356,0.007,0.596,0.022,0.72C464.66,87.775,464.668,87.853,464.668,87.883z"/>
	<path d="M498.739,84.263c-0.495-0.34-0.882-0.627-1.16-0.859s-0.588-0.58-0.929-1.044c-0.248-0.278-0.688-0.502-1.322-0.673
		c-0.635-0.169-1.447-0.255-2.438-0.255c-0.805,0-1.207,0.356-1.207,1.067v18.521c0,0.681,0.372,1.161,1.114,1.439
		c0.773,0.217,1.16,0.557,1.16,1.021c0,0.65-0.324,0.975-0.975,0.975h-8.587c-0.62,0-0.929-0.325-0.929-0.975
		c0-0.495,0.232-0.79,0.696-0.882c1.052-0.278,1.578-0.928,1.578-1.95l-0.047-18.15c0-0.34-0.069-0.604-0.208-0.789
		c-0.14-0.186-0.411-0.278-0.813-0.278c-0.526,0-0.983-0.007-1.37-0.023c-0.387-0.015-0.758,0.008-1.113,0.07
		c-0.356,0.062-0.689,0.193-0.998,0.395c-0.31,0.202-0.635,0.534-0.976,0.998c-0.805,0.991-1.377,1.485-1.717,1.485
		c-0.65,0-0.975-0.294-0.975-0.882c0-0.495,0.278-1.238,0.835-2.229c0.402-0.743,0.735-1.346,0.998-1.81
		c0.263-0.464,0.734-0.696,1.416-0.696c2.661,0,4.874,0,6.638,0s3.203,0,4.317,0s1.957,0,2.529,0s0.998,0,1.277,0
		c0.278,0,0.464,0,0.557,0s0.216,0,0.371,0c0.743,0.062,1.408,0.542,1.996,1.439c0.588,0.898,1.037,1.996,1.347,3.296
		c0.03,0.093,0,0.193-0.093,0.301c-0.093,0.109-0.194,0.209-0.302,0.302c-0.109,0.093-0.232,0.163-0.372,0.209
		C498.902,84.332,498.802,84.325,498.739,84.263z"/>
	<path d="M514.197,104.455c-0.712,0-1.067-0.34-1.067-1.021c0-0.402,0.263-0.696,0.789-0.882c0.588-0.216,1.037-0.479,1.347-0.789
		c0.309-0.309,0.401-0.634,0.278-0.975l-1.114-3.575c-0.681-0.154-1.424-0.216-2.229-0.186c-1.052,0.248-1.965,0.248-2.738,0
		c-0.712-0.216-1.067-0.619-1.067-1.207c0-0.525,0.192-0.874,0.58-1.044c0.387-0.169,0.951-0.255,1.694-0.255
		c0.401,0,0.858,0.008,1.369,0.023c0.511,0.016,0.874-0.1,1.091-0.348c-0.031-0.278-0.17-0.796-0.418-1.555
		c-0.248-0.758-0.519-1.555-0.813-2.391c-0.294-0.835-0.58-1.617-0.858-2.344c-0.278-0.727-0.464-1.214-0.557-1.462
		c-0.31,0.681-0.689,1.648-1.138,2.901c-0.449,1.253-0.982,2.762-1.602,4.526c-0.712,1.98-1.223,3.582-1.531,4.804
		c-0.311,1.223-0.465,2.05-0.465,2.483c0,0.65,0.325,1.083,0.975,1.3c0.681,0.279,1.021,0.604,1.021,0.975
		c0,0.681-0.355,1.021-1.067,1.021h-6.034c-0.342,0-0.55-0.093-0.627-0.278c-0.078-0.186-0.116-0.448-0.116-0.79
		c0.681-0.525,1.307-1.036,1.88-1.532c0.572-0.495,0.952-0.99,1.138-1.485c1.207-3.404,2.336-6.792,3.389-10.166
		c1.052-3.373,2.15-6.792,3.296-10.259c0.154-0.433,0.433-0.766,0.835-0.998c0.402-0.232,0.819-0.348,1.254-0.348
		c0.525,0,1.074,0.101,1.647,0.302c0.572,0.202,0.936,0.503,1.091,0.905c1.207,3.405,2.406,6.785,3.598,10.143
		c1.19,3.358,2.375,6.739,3.551,10.143c0.154,0.371,0.41,0.681,0.767,0.928c0.354,0.248,0.874,0.635,1.555,1.161
		c0.34,0.248,0.649,0.472,0.929,0.673c0.278,0.202,0.417,0.395,0.417,0.581c0,0.681-0.341,1.021-1.021,1.021H514.197z"/>
	<path d="M526.082,111.232v-2.042c3.403-0.557,5.794-2.182,7.172-4.874c1.376-2.692,2.065-7.504,2.065-14.437
		c0-6.932-0.689-11.736-2.065-14.414c-1.378-2.676-3.769-4.293-7.172-4.851v-2.042c4.95,0.526,8.881,2.708,11.79,6.545
		c2.908,3.838,4.363,8.758,4.363,14.762c0,5.973-1.455,10.893-4.363,14.761C534.963,108.509,531.032,110.706,526.082,111.232z"/>
</g>
</svg>
